<svg width="32" height="32" viewBox="0 0 32 32" fill="none" xmlns="http://www.w3.org/2000/svg">
<path d="M5.45202 26.55C4.48401 25.5833 4 24.4 4 23C4 21.6 4.48401 20.4167 5.45202 19.45C6.42003 18.4833 7.60501 18 9.00695 18C9.63004 18 10.1919 18.0889 10.6926 18.2667C11.1933 18.4444 11.6328 18.6889 12.0111 19V6.66667L28 4V20.3333C28 21.7333 27.516 22.9167 26.548 23.8833C25.58 24.85 24.395 25.3333 22.993 25.3333C21.5911 25.3333 20.4061 24.85 19.4381 23.8833C18.4701 22.9167 17.9861 21.7333 17.9861 20.3333C17.9861 18.9333 18.4701 17.75 19.4381 16.7833C20.4061 15.8167 21.5911 15.3333 22.993 15.3333C23.6161 15.3333 24.178 15.4222 24.6787 15.6C25.1794 15.7778 25.6189 16.0222 25.9972 16.3333V10.2L14.0139 12.2V23C14.0139 24.4 13.5299 25.5833 12.5619 26.55C11.5939 27.5167 10.4089 28 9.00695 28C7.60501 28 6.42003 27.5167 5.45202 26.55Z" fill="#1BC54E"/>
</svg>
