<svg width="32" height="32" viewBox="0 0 32 32" fill="none" xmlns="http://www.w3.org/2000/svg">
<path d="M11.2 23.2C10.54 23.2 9.975 22.965 9.505 22.495C9.035 22.025 8.8 21.46 8.8 20.8V6.4C8.8 5.74 9.035 5.175 9.505 4.705C9.975 4.235 10.54 4 11.2 4H25.6C26.26 4 26.825 4.235 27.295 4.705C27.765 5.175 28 5.74 28 6.4V20.8C28 21.46 27.765 22.025 27.295 22.495C26.825 22.965 26.26 23.2 25.6 23.2H11.2ZM6.4 28C5.74 28 5.175 27.765 4.705 27.295C4.235 26.825 4 26.26 4 25.6V8.8H6.4V25.6H23.2V28H6.4Z" fill="#1BC54E"/>
<path d="M24.4 18.4H12.4L15.64 14.2L17.5 16.6L20.26 13L24.4 18.4Z" fill="#1BC54E"/>
</svg>
