<svg width="48" height="48" viewBox="0 0 48 48" fill="none" xmlns="http://www.w3.org/2000/svg">
<path d="M8.15032 34.1032H38.6503C42.3403 33.8093 45.0503 30.8999 45.1503 27.4126C45.2503 23.8469 42.5703 20.7905 38.8803 20.3791C38.8303 16.2452 35.8103 12.9048 31.9003 12.1603C27.7303 11.3669 23.5803 13.571 22.0503 17.6069C17.3603 16.0885 12.3703 18.4885 10.8703 23.171C7.46032 21.9367 3.95032 23.8665 3.15032 27.1089C2.35032 30.3612 4.51033 33.6428 8.13033 34.1032H8.15032Z" fill="#C7DDE2"/>
<path d="M45.1403 27.4129C45.0503 30.8904 42.3403 33.7998 38.6503 34.1035H8.14029C5.58029 33.7704 3.7503 32.0365 3.1803 29.901C3.1803 29.901 4.9703 25.7573 8.4303 26.4333C10.6003 26.8643 11.8403 28.6276 11.8403 28.6276C11.8403 28.6276 12.8503 27.0798 11.4503 25.199C11.4503 25.199 14.2003 25.3165 15.6203 28.2063C15.6203 28.2063 17.1703 25.2675 19.9803 25.6496C22.7903 26.0316 23.3703 28.2063 23.3703 28.2063C23.3703 28.2063 23.3703 23.9843 18.9203 23.4553C18.9203 23.4553 20.7703 19.0178 25.2203 21.0357C27.0403 21.8586 26.9903 24.4055 26.9903 24.4055C26.9903 24.4055 28.0303 24.0235 28.3403 24.9541C28.3403 24.9541 30.7703 21.692 34.5003 24.7875C34.5003 24.7875 33.8503 20.8986 30.1303 19.5369C30.1303 19.5369 35.9203 18.1165 37.4003 24.4055C37.4003 24.4055 40.2303 20.8692 44.0703 23.5729C44.7903 24.6896 45.1803 26.012 45.1403 27.4129Z" fill="#93ADBC"/>
<path d="M12.1603 40.9403L17.1403 30.5566L20.5503 31.6145L23.6803 25.208L28.5003 26.7949L21.0303 35.3566L17.8303 34.1321L12.1603 40.9403Z" fill="#FFF200"/>
<path d="M21.7003 40.9403L26.6803 30.5566L30.1003 31.6145L33.2203 25.208L38.0503 26.7949L30.5803 35.3566L27.3703 34.1321L21.7003 40.9403Z" fill="#FFF200"/>
</svg>
