<svg width="48" height="48" viewBox="0 0 48 48" fill="none" xmlns="http://www.w3.org/2000/svg">
<path d="M25.6415 21.0272H27.4316C27.8656 21.0272 28.2272 20.6495 28.2272 20.1963C28.2272 19.743 27.8656 19.3653 27.4316 19.3653H25.6415C25.6415 19.3653 25.5692 19.3653 25.533 19.3748C25.5059 19.2048 25.4788 19.0443 25.4426 18.8837C25.4788 18.8743 25.515 18.8649 25.5421 18.8554L27.1966 18.1378C27.6034 17.9584 27.7933 17.4768 27.6215 17.0519C27.4497 16.6269 26.9886 16.4286 26.5818 16.6081L24.9273 17.3257C24.9273 17.3257 24.864 17.3635 24.8369 17.3824C24.7555 17.2407 24.6741 17.1085 24.5747 16.9763C24.6018 16.9574 24.6289 16.9291 24.6561 16.9102L25.9218 15.5882C26.2292 15.2672 26.2292 14.7384 25.9218 14.4173C25.6144 14.0963 25.1081 14.0963 24.8007 14.4173L23.535 15.7393C23.535 15.7393 23.4898 15.796 23.4717 15.8243C23.3451 15.7204 23.2095 15.6354 23.0739 15.541C23.092 15.5127 23.1101 15.4749 23.1282 15.4466L23.8062 13.7186C23.969 13.2937 23.7791 12.8121 23.3723 12.6327C22.9654 12.4533 22.5043 12.661 22.3326 13.0859L21.6545 14.8139C21.6545 14.8139 21.6364 14.8895 21.6274 14.9178C21.4737 14.88 21.329 14.8517 21.1753 14.8234C21.1753 14.7856 21.1844 14.7478 21.1844 14.7101V12.831C21.1844 12.3777 20.8227 12 20.3888 12C19.9548 12 19.5932 12.3777 19.5932 12.831V14.7006C19.5932 14.7006 19.5932 14.7762 19.6022 14.8139C19.4395 14.8423 19.2858 14.8706 19.1321 14.9084C19.123 14.8706 19.114 14.8328 19.105 14.8045L18.4178 13.0765C18.2461 12.6515 17.785 12.4533 17.3781 12.6327C16.9713 12.8121 16.7814 13.2937 16.9532 13.7186L17.6403 15.4466C17.6403 15.4466 17.6765 15.5127 17.6946 15.541C17.559 15.626 17.4324 15.711 17.3058 15.8149C17.2877 15.7865 17.2606 15.7582 17.2425 15.7299L15.9768 14.4079C15.6694 14.0868 15.1631 14.0868 14.8557 14.4079C14.5483 14.7289 14.5483 15.2577 14.8557 15.5788L16.1214 16.9008C16.1214 16.9008 16.1757 16.948 16.2028 16.9669C16.1034 17.0991 16.022 17.2407 15.9316 17.3824C15.9045 17.3635 15.8683 17.3446 15.8412 17.3257L14.1867 16.6175C13.7799 16.4475 13.3188 16.6458 13.147 17.0707C12.9843 17.4957 13.1741 17.9772 13.581 18.1567L15.2354 18.8649C15.2354 18.8649 15.3078 18.8837 15.3349 18.8932C15.2987 19.0537 15.2716 19.2048 15.2445 19.3653C15.2083 19.3653 15.1722 19.3559 15.136 19.3559H13.3459C12.9119 19.3559 12.5503 19.7336 12.5503 20.1868C12.5503 20.6401 12.9119 21.0178 13.3459 21.0178H15.136C15.136 21.0178 15.2083 21.0178 15.2445 21.0084C15.2716 21.1783 15.2987 21.3389 15.3349 21.4994C15.2987 21.5088 15.2626 21.5183 15.2354 21.5277L13.581 22.2454C13.1741 22.4248 12.9843 22.9063 13.156 23.3313C13.3278 23.7562 13.7889 23.9545 14.1957 23.7751L15.8502 23.0574C15.8502 23.0574 15.9135 23.0197 15.9406 23.0008C16.022 23.1424 16.1034 23.2746 16.2028 23.4068C16.1757 23.4257 16.1486 23.454 16.1214 23.4729L14.8557 24.7949C14.5483 25.1159 14.5483 25.6447 14.8557 25.9658C15.1631 26.2868 15.6694 26.2868 15.9768 25.9658L17.2425 24.6438C17.2425 24.6438 17.2877 24.5872 17.3058 24.5588C17.4324 24.6627 17.568 24.7477 17.7036 24.8421C17.6855 24.8704 17.6674 24.9082 17.6494 24.9365L16.9713 26.6646C16.8086 27.0895 16.9984 27.5711 17.4053 27.7505C17.8121 27.9204 18.2732 27.7221 18.445 27.2972L19.123 25.5692C19.123 25.5692 19.1411 25.4937 19.1502 25.4653C19.3038 25.5031 19.4485 25.5314 19.6022 25.5598C19.6022 25.5975 19.5932 25.6353 19.5932 25.6731V27.5427C19.5932 27.996 19.9548 28.3737 20.3888 28.3737C20.8227 28.3737 21.1844 27.996 21.1844 27.5427V25.6731C21.1844 25.6731 21.1844 25.5975 21.1753 25.5598C21.3381 25.5314 21.4917 25.5031 21.6454 25.4653C21.6545 25.5031 21.6635 25.5409 21.6726 25.5692L22.3597 27.2972C22.5315 27.7221 22.9925 27.9204 23.3994 27.741C23.8062 27.5616 23.9961 27.08 23.8243 26.6551L23.1372 24.9271C23.1372 24.9271 23.101 24.861 23.083 24.8327C23.2186 24.7477 23.3451 24.6627 23.4717 24.5588C23.4898 24.5872 23.5169 24.6155 23.535 24.6438L24.8007 25.9658C25.1081 26.2868 25.6144 26.2868 25.9218 25.9658C26.2292 25.6447 26.2292 25.1159 25.9218 24.7949L24.6561 23.4729C24.6561 23.4729 24.6018 23.4257 24.5747 23.4068C24.6741 23.2746 24.7555 23.133 24.8459 22.9913C24.8731 23.0102 24.9092 23.0291 24.9363 23.048L26.5908 23.7562C26.9977 23.9262 27.4588 23.7279 27.6305 23.3029C27.7933 22.878 27.6034 22.3964 27.1966 22.217L25.5421 21.5088C25.5421 21.5088 25.4698 21.4899 25.4426 21.4805C25.4788 21.32 25.5059 21.1689 25.533 21.0084C25.5692 21.0084 25.6054 21.0178 25.6415 21.0178V21.0272Z" fill="#FF9815"/>
<path d="M9.42218 35.2858H36.997C40.3331 35.0025 42.7831 32.198 42.8735 28.8364C42.964 25.3992 40.541 22.4531 37.2049 22.0565C37.1597 18.0717 34.4293 14.8517 30.8943 14.1341C27.1243 13.3692 23.3723 15.4938 21.989 19.3842C17.7489 17.9206 13.2374 20.2341 11.8813 24.7477C8.79836 23.5579 5.625 25.4181 4.90173 28.5437C4.17846 31.6786 6.13129 34.842 9.4041 35.2858H9.42218Z" fill="#BDEEFF"/>
<path d="M42.8735 28.8456C42.7922 32.1978 40.3421 35.0023 37.006 35.295H9.42216C7.10768 34.9739 5.4532 33.3026 4.93787 31.2441C4.93787 31.2441 6.55619 27.2498 9.68434 27.9013C11.6462 28.3168 12.7673 30.0165 12.7673 30.0165C12.7673 30.0165 13.6804 28.5246 12.4147 26.7116C12.4147 26.7116 14.9009 26.8249 16.1848 29.6105C16.1848 29.6105 17.5861 26.7777 20.1266 27.1459C22.6671 27.5142 23.1915 29.6105 23.1915 29.6105C23.1915 29.6105 23.1915 25.5407 19.1683 25.0307C19.1683 25.0307 20.8408 20.7532 24.864 22.6984C26.5095 23.4916 26.4643 25.9467 26.4643 25.9467C26.4643 25.9467 27.4045 25.5784 27.6848 26.4755C27.6848 26.4755 29.8817 23.3311 33.254 26.315C33.254 26.315 32.6663 22.5662 29.3031 21.2537C29.3031 21.2537 34.5378 19.8845 35.8759 25.9467C35.8759 25.9467 38.4344 22.5379 41.9061 25.1441C42.5571 26.2205 42.9097 27.4953 42.8735 28.8456Z" fill="#8EC7ED"/>
</svg>
