<svg width="24" height="24" viewBox="0 0 24 24" fill="none" xmlns="http://www.w3.org/2000/svg">
<path d="M4.75 19C4.53333 19 4.35417 18.9292 4.2125 18.7875C4.07083 18.6458 4 18.4667 4 18.25C4 18.0333 4.07083 17.8542 4.2125 17.7125C4.35417 17.5708 4.53333 17.5 4.75 17.5H6V9.9C6 8.5 6.4125 7.24583 7.2375 6.1375C8.0625 5.02917 9.15 4.33333 10.5 4.05V3.5C10.5 3.08333 10.6458 2.72917 10.9375 2.4375C11.2292 2.14583 11.5833 2 12 2C12.4167 2 12.7708 2.14583 13.0625 2.4375C13.3542 2.72917 13.5 3.08333 13.5 3.5V4.05C14.85 4.33333 15.9375 5.02917 16.7625 6.1375C17.5875 7.24583 18 8.5 18 9.9V17.5H19.25C19.4667 17.5 19.6458 17.5708 19.7875 17.7125C19.9292 17.8542 20 18.0333 20 18.25C20 18.4667 19.9292 18.6458 19.7875 18.7875C19.6458 18.9292 19.4667 19 19.25 19H4.75ZM12 22C11.45 22 10.9792 21.8042 10.5875 21.4125C10.1958 21.0208 10 20.55 10 20H14C14 20.55 13.8042 21.0208 13.4125 21.4125C13.0208 21.8042 12.55 22 12 22Z" fill="#737373"/>
</svg>
