<svg width="32" height="32" viewBox="0 0 32 32" fill="none" xmlns="http://www.w3.org/2000/svg">
<path d="M8.26 22.75C9.52 21.95 10.765 21.345 11.995 20.935C13.225 20.525 14.56 20.32 16 20.32C17.44 20.32 18.78 20.525 20.02 20.935C21.26 21.345 22.51 21.95 23.77 22.75C24.65 21.67 25.275 20.58 25.645 19.48C26.015 18.38 26.2 17.22 26.2 16C26.2 13.1 25.225 10.675 23.275 8.725C21.325 6.775 18.9 5.8 16 5.8C13.1 5.8 10.675 6.775 8.725 8.725C6.775 10.675 5.8 13.1 5.8 16C5.8 17.22 5.99 18.38 6.37 19.48C6.75 20.58 7.38 21.67 8.26 22.75ZM13.075 15.715C12.285 14.925 11.89 13.95 11.89 12.79C11.89 11.63 12.285 10.655 13.075 9.865C13.865 9.075 14.84 8.68 16 8.68C17.16 8.68 18.135 9.075 18.925 9.865C19.715 10.655 20.11 11.63 20.11 12.79C20.11 13.95 19.715 14.925 18.925 15.715C18.135 16.505 17.16 16.9 16 16.9C14.84 16.9 13.865 16.505 13.075 15.715ZM16 28C14.32 28 12.75 27.685 11.29 27.055C9.83 26.425 8.56 25.565 7.48 24.475C6.4 23.385 5.55 22.11 4.93 20.65C4.31 19.19 4 17.64 4 16C4 14.34 4.315 12.78 4.945 11.32C5.575 9.86 6.435 8.59 7.525 7.51C8.615 6.43 9.89 5.575 11.35 4.945C12.81 4.315 14.36 4 16 4C17.66 4 19.22 4.315 20.68 4.945C22.14 5.575 23.41 6.43 24.49 7.51C25.57 8.59 26.425 9.86 27.055 11.32C27.685 12.78 28 14.34 28 16C28 17.64 27.685 19.19 27.055 20.65C26.425 22.11 25.57 23.385 24.49 24.475C23.41 25.565 22.14 26.425 20.68 27.055C19.22 27.685 17.66 28 16 28Z" fill="#D9D9D9"/>
</svg>
