<svg width="32" height="32" viewBox="0 0 32 32" fill="none" xmlns="http://www.w3.org/2000/svg">
<path d="M4 25.9574V12.6809C4 12.3574 4.07975 12.0511 4.23925 11.7617C4.3985 11.4723 4.61875 11.234 4.9 11.0468L14.65 4.40851C15.042 4.13617 15.49 4 15.994 4C16.498 4 16.95 4.13617 17.35 4.40851L27.1 11.0468C27.3813 11.234 27.6016 11.4723 27.7611 11.7617C27.9204 12.0511 28 12.3574 28 12.6809V25.9574C28 26.5191 27.7798 26.9999 27.3393 27.3998C26.8985 27.7999 26.3688 28 25.75 28H20.125C19.8063 28 19.5391 27.9021 19.3236 27.7062C19.1079 27.5106 19 27.2681 19 26.9787V19.4894C19 19.2 18.8923 18.9574 18.6768 18.7615C18.461 18.5659 18.1938 18.4681 17.875 18.4681H14.125C13.8063 18.4681 13.5391 18.5659 13.3236 18.7615C13.1079 18.9574 13 19.2 13 19.4894V26.9787C13 27.2681 12.8923 27.5106 12.6768 27.7062C12.461 27.9021 12.1938 28 11.875 28H6.25C5.63125 28 5.10163 27.7999 4.66113 27.3998C4.22038 26.9999 4 26.5191 4 25.9574Z" fill="#D9D9D9"/>
</svg>
