<svg width="32" height="32" viewBox="0 0 32 32" fill="none" xmlns="http://www.w3.org/2000/svg">
<path d="M11.3477 4.02539C12.5684 4.02539 13.7158 4.25662 14.7891 4.71973C15.8625 5.18298 16.796 5.81168 17.5898 6.60547C18.3838 7.39943 19.0123 8.33355 19.4756 9.40723C19.9387 10.4804 20.1709 11.627 20.1709 12.8477C20.1709 14.0684 19.9387 15.2158 19.4756 16.2891C19.0123 17.3626 18.3837 18.296 17.5898 19.0898C16.796 19.8837 15.8626 20.5123 14.7891 20.9756C13.7158 21.4387 12.5684 21.6709 11.3477 21.6709C10.127 21.6709 8.98039 21.4387 7.90723 20.9756C6.83355 20.5123 5.89943 19.8838 5.10547 19.0898C4.31168 18.296 3.68298 17.3625 3.21973 16.2891C2.75662 15.2158 2.52539 14.0684 2.52539 12.8477C2.52542 11.6271 2.75668 10.4804 3.21973 9.40723C3.68304 8.33351 4.31148 7.39945 5.10547 6.60547C5.89945 5.81148 6.83351 5.18304 7.90723 4.71973C8.98036 4.25668 10.1271 4.02542 11.3477 4.02539ZM8.11816 9.26172C7.78015 9.26178 7.49181 9.37826 7.25488 9.61133C7.01764 9.84481 6.89941 10.1359 6.89941 10.4814C6.8995 10.8268 7.01772 11.1172 7.25488 11.3506C7.49184 11.5837 7.78009 11.7001 8.11816 11.7002C8.45639 11.7002 8.74539 11.5839 8.98242 11.3506C9.21948 11.1172 9.33781 10.8268 9.33789 10.4814C9.33789 10.1359 9.21964 9.8448 8.98242 9.61133C8.74539 9.37806 8.45639 9.26172 8.11816 9.26172ZM14.5771 9.26172C14.2391 9.26177 13.9508 9.37826 13.7139 9.61133C13.4766 9.84481 13.3574 10.1359 13.3574 10.4814C13.3575 10.8268 13.4767 11.1172 13.7139 11.3506C13.9508 11.5837 14.2391 11.7001 14.5771 11.7002C14.9154 11.7002 15.2044 11.5839 15.4414 11.3506C15.6785 11.1172 15.7968 10.8268 15.7969 10.4814C15.7969 10.1359 15.6786 9.8448 15.4414 9.61133C15.2044 9.37806 14.9154 9.26172 14.5771 9.26172Z" fill="#D9D9D9" stroke="#F5F5F5" stroke-width="0.05"/>
<mask id="path-2-inside-1_841_6595" fill="white">
<path d="M19.009 10.6938C21.7976 10.6939 24.1228 12.7467 24.6545 15.4731C27.901 15.5839 30.5002 18.3437 30.5002 21.7339C30.5002 25.1944 27.7918 27.9995 24.4514 27.9995C24.3552 27.9995 24.2595 27.9963 24.1643 27.9917V27.9995H10.9153L10.6487 27.9927C7.90938 27.8489 5.73071 25.502 5.73071 22.6284C5.73085 19.6624 8.05219 17.2583 10.9153 17.2583H13.2776C13.2588 17.062 13.2483 16.863 13.2483 16.6616C13.2483 13.3659 15.8277 10.6938 19.009 10.6938Z"/>
</mask>
<path d="M19.009 10.6938C21.7976 10.6939 24.1228 12.7467 24.6545 15.4731C27.901 15.5839 30.5002 18.3437 30.5002 21.7339C30.5002 25.1944 27.7918 27.9995 24.4514 27.9995C24.3552 27.9995 24.2595 27.9963 24.1643 27.9917V27.9995H10.9153L10.6487 27.9927C7.90938 27.8489 5.73071 25.502 5.73071 22.6284C5.73085 19.6624 8.05219 17.2583 10.9153 17.2583H13.2776C13.2588 17.062 13.2483 16.863 13.2483 16.6616C13.2483 13.3659 15.8277 10.6938 19.009 10.6938Z" fill="#D9D9D9"/>
<path d="M19.009 10.6938L19.009 9.69385H19.009V10.6938ZM24.6545 15.4731L23.673 15.6646L23.8253 16.4454L24.6204 16.4726L24.6545 15.4731ZM30.5002 21.7339L31.5002 21.7339V21.7339H30.5002ZM24.4514 27.9995L24.4513 28.9995H24.4514V27.9995ZM24.1643 27.9917L24.2127 26.9929L23.1643 26.942V27.9917H24.1643ZM24.1643 27.9995V28.9995H25.1643V27.9995H24.1643ZM10.9153 27.9995L10.8897 28.9992L10.9025 28.9995H10.9153V27.9995ZM10.6487 27.9927L10.5963 28.9913L10.6097 28.992L10.623 28.9923L10.6487 27.9927ZM5.73071 22.6284L4.73071 22.6284V22.6284H5.73071ZM13.2776 17.2583V18.2583H14.3781L14.273 17.1628L13.2776 17.2583ZM13.2483 16.6616H12.2483V16.6617L13.2483 16.6616ZM19.009 10.6938L19.009 11.6938C21.2857 11.6939 23.2264 13.3743 23.673 15.6646L24.6545 15.4731L25.636 15.2817C25.0193 12.1192 22.3094 9.6939 19.009 9.69385L19.009 10.6938ZM24.6545 15.4731L24.6204 16.4726C27.299 16.564 29.5002 18.853 29.5002 21.7339H30.5002H31.5002C31.5002 17.8344 28.503 14.6039 24.6886 14.4737L24.6545 15.4731ZM30.5002 21.7339L29.5002 21.7339C29.5002 24.6755 27.2066 26.9995 24.4514 26.9995V27.9995V28.9995C28.3769 28.9995 31.5002 25.7132 31.5002 21.7339L30.5002 21.7339ZM24.4514 27.9995L24.4515 26.9995C24.3768 26.9995 24.2983 26.997 24.2127 26.9929L24.1643 27.9917L24.1159 28.9905C24.2206 28.9956 24.3335 28.9995 24.4513 28.9995L24.4514 27.9995ZM24.1643 27.9917H23.1643V27.9995H24.1643H25.1643V27.9917H24.1643ZM24.1643 27.9995V26.9995H10.9153V27.9995V28.9995H24.1643V27.9995ZM10.9153 27.9995L10.9409 26.9998L10.6743 26.993L10.6487 27.9927L10.623 28.9923L10.8897 28.9992L10.9153 27.9995ZM10.6487 27.9927L10.7011 26.994C8.52078 26.8797 6.73071 24.9983 6.73071 22.6284H5.73071H4.73071C4.73071 26.0056 7.29799 28.8182 10.5963 28.9913L10.6487 27.9927ZM5.73071 22.6284L6.73071 22.6285C6.73083 20.1813 8.63732 18.2583 10.9153 18.2583V17.2583V16.2583C7.46707 16.2583 4.73087 19.1435 4.73071 22.6284L5.73071 22.6284ZM10.9153 17.2583V18.2583H13.2776V17.2583V16.2583H10.9153V17.2583ZM13.2776 17.2583L14.273 17.1628C14.257 16.9954 14.2483 16.8284 14.2483 16.6616L13.2483 16.6616L12.2483 16.6617C12.2483 16.8977 12.2606 17.1286 12.2822 17.3538L13.2776 17.2583ZM13.2483 16.6616H14.2483C14.2483 13.8846 16.413 11.6938 19.009 11.6938V10.6938V9.69385C15.2425 9.69385 12.2483 12.8472 12.2483 16.6616H13.2483Z" fill="#F5F5F5" mask="url(#path-2-inside-1_841_6595)"/>
</svg>
