<svg width="28" height="28" viewBox="0 0 28 28" fill="none" xmlns="http://www.w3.org/2000/svg">
<path d="M23.3897 15.3969H26.5862C27.3699 15.3969 28 14.7522 28 13.9846C28 13.2171 27.3546 12.5724 26.5862 12.5724H23.3897C23.3897 12.5724 23.2667 12.5724 23.2053 12.5877C23.1592 12.2961 23.1131 12.0197 23.0362 11.7434C23.0977 11.7281 23.1592 11.7127 23.2206 11.682L26.1712 10.4539C26.8935 10.1469 27.2316 9.31798 26.9396 8.59649C26.6323 7.875 25.8024 7.53728 25.0801 7.82895L22.1295 9.05702C22.1295 9.05702 22.022 9.11842 21.9605 9.14912C21.8222 8.91886 21.6685 8.6886 21.4995 8.45833C21.5456 8.42763 21.607 8.38158 21.6531 8.33553L23.9122 6.07895C24.4654 5.52632 24.4654 4.62061 23.9122 4.06798C23.3589 3.51535 22.4523 3.51535 21.899 4.06798L19.64 6.32456C19.64 6.32456 19.5631 6.41667 19.517 6.47807C19.2865 6.30921 19.0406 6.1557 18.7947 6.00219C18.8255 5.94079 18.8562 5.89474 18.8869 5.83333L20.101 2.88596C20.393 2.16447 20.0549 1.33553 19.3326 1.02851C18.6103 0.721491 17.7805 1.07456 17.4731 1.79605L16.2591 4.74342C16.2591 4.74342 16.2283 4.86623 16.1976 4.92763C15.9363 4.86623 15.6597 4.80482 15.3831 4.77412C15.3831 4.71272 15.3985 4.65132 15.3985 4.58991V1.41228C15.3985 0.629386 14.753 0 13.9846 0C13.2162 0 12.5708 0.644737 12.5708 1.41228V4.60526C12.5708 4.60526 12.5708 4.72807 12.5862 4.78947C12.2942 4.83553 12.0176 4.88158 11.7409 4.95833C11.7256 4.89693 11.7102 4.83553 11.6795 4.77412L10.4501 1.82675C10.1427 1.10526 9.31284 0.767544 8.59056 1.05921C7.86828 1.36623 7.53019 2.19518 7.82217 2.91667L9.05159 5.86404C9.05159 5.86404 9.11306 5.97149 9.1438 6.03289C8.91328 6.17105 8.68277 6.32456 8.45225 6.49342C8.42152 6.44737 8.37541 6.38596 8.32931 6.33991L6.07025 4.08333C5.51701 3.5307 4.61032 3.5307 4.05708 4.08333C3.50384 4.63596 3.50384 5.54167 4.05708 6.0943L6.31614 8.35088C6.31614 8.35088 6.40834 8.42763 6.46981 8.47368C6.30077 8.70395 6.14709 8.94956 5.99341 9.19518C5.93194 9.16447 5.88584 9.13377 5.82437 9.10307L2.87377 7.89035C2.15148 7.59868 1.32162 7.9364 1.01427 8.65789C0.722283 9.37939 1.06037 10.2083 1.78266 10.5154L4.73326 11.7281C4.73326 11.7281 4.8562 11.7588 4.91767 11.7895C4.8562 12.0504 4.79473 12.3268 4.764 12.6031C4.70252 12.6031 4.64105 12.5877 4.57958 12.5877H1.41383C0.630077 12.5877 0 13.2325 0 14C0 14.7675 0.645445 15.4123 1.41383 15.4123H4.61032C4.61032 15.4123 4.73326 15.4123 4.79473 15.3969C4.84083 15.6886 4.88694 15.9649 4.96378 16.2412C4.90231 16.2566 4.84083 16.2719 4.77936 16.3026L1.82876 17.5307C1.10648 17.8377 0.768386 18.6667 1.06037 19.3882C1.36773 20.1096 2.19759 20.4474 2.91987 20.1557L5.87047 18.9276C5.87047 18.9276 5.97805 18.8662 6.03952 18.8355C6.17783 19.0658 6.3315 19.2961 6.50055 19.5263C6.45445 19.557 6.39298 19.6031 6.34687 19.6491L4.08782 21.9057C3.53458 22.4583 3.53458 23.364 4.08782 23.9167C4.64105 24.4693 5.54775 24.4693 6.10099 23.9167L8.36004 21.6601C8.36004 21.6601 8.43688 21.568 8.48299 21.5066C8.7135 21.6754 8.95938 21.8289 9.20527 21.9825C9.17453 22.0439 9.1438 22.0899 9.11306 22.1513L7.89901 25.0987C7.60703 25.8202 7.94512 26.6491 8.6674 26.9561C9.38968 27.2478 10.2195 26.9101 10.5269 26.1886L11.7409 23.2412C11.7409 23.2412 11.7717 23.1184 11.8024 23.057C12.0637 23.1184 12.3403 23.1798 12.6169 23.2105C12.6169 23.2719 12.6015 23.3333 12.6015 23.3947V26.5877C12.6015 27.3706 13.247 28 14.0154 28C14.7838 28 15.4292 27.3553 15.4292 26.5877V23.3947C15.4292 23.3947 15.4292 23.2719 15.4138 23.2105C15.7058 23.1645 15.9824 23.1184 16.2591 23.0417C16.2744 23.1031 16.2898 23.1645 16.3205 23.2259L17.5499 26.1732C17.8573 26.8947 18.6872 27.2325 19.4094 26.9408C20.1317 26.6338 20.4698 25.8048 20.1778 25.0833L18.9484 22.136C18.9484 22.136 18.8869 22.0285 18.8562 21.9671C19.0867 21.8289 19.3172 21.6754 19.5478 21.5066C19.5785 21.5526 19.6246 21.614 19.6707 21.6601L21.9297 23.9167C22.483 24.4693 23.3897 24.4693 23.9429 23.9167C24.4962 23.364 24.4962 22.4583 23.9429 21.9057L21.6839 19.6491C21.6839 19.6491 21.5917 19.5724 21.5302 19.5263C21.6992 19.2961 21.8529 19.0504 22.0066 18.8048C22.0681 18.8355 22.1142 18.8662 22.1756 18.8969L25.1262 20.1096C25.8485 20.4013 26.6784 20.0636 26.9857 19.3421C27.2777 18.6206 26.9396 17.7917 26.2173 17.4846L23.2667 16.2719C23.2667 16.2719 23.1438 16.2412 23.0823 16.2105C23.1438 15.9496 23.2053 15.6732 23.236 15.3969C23.2975 15.3969 23.3589 15.4123 23.4204 15.4123L23.3897 15.3969Z" fill="#FF9815"/>
</svg>
