<?xml version="1.0" encoding="UTF-8"?>
<svg id="Layer_2" data-name="Layer 2" xmlns="http://www.w3.org/2000/svg" viewBox="0 0 40 7.62">
  <g id="Layer_1-2" data-name="Layer 1">
    <g>
      <g>
        <path d="M6.43,3.33c-.53.53-1.17.93-1.83,1.26-.05.03-.34.16-.67.31-.22.1-.48.1-.7,0-.33-.14-.62-.28-.67-.31-.66-.34-1.31-.73-1.83-1.26,0,0,0,0,0,0-.14-.14-.37-.05-.37.15v3.61c0,.29.24.53.53.53h1.19c.29,0,.53-.24.53-.53v-.73c0-.09.07-.17.17-.17h1.64c.09,0,.17.07.17.17v.73c0,.29.24.53.53.53h1.19c.29,0,.53-.24.53-.53v-3.65c0-.2-.24-.29-.38-.14-.01.02-.03.03-.04.04Z" style="fill: #afafaf;"/>
        <path d="M6.31,2.49h.56c.07,0,.13-.04.16-.11.14-.4.17-.83.02-1.24C6.67.05,5.39-.29,4.43.25c-.28.16-.53.38-.71.65-.07.1-.21.1-.28,0-.18-.27-.43-.49-.71-.65C1.77-.29.48.05.1,1.14c-.15.41-.12.84.02,1.24.02.07.09.11.16.11h1.8c.29,0,.53.24.53.53h0v.73c0,.09.07.17.17.17h1.64c.09,0,.17-.07.17-.17v-.73h0c0-.29.24-.53.53-.53h1.19Z" style="fill: #afafaf;"/>
      </g>
      <g>
        <polygon points="10.69 5.85 9.22 3.56 8.41 3.56 8.41 7.45 9.21 7.45 9.21 4.9 10.29 6.59 11.09 6.59 12.17 4.9 12.17 7.45 12.97 7.45 12.97 3.56 12.16 3.56 10.69 5.85" style="fill: #afafaf;"/>
        <path d="M15.14,4.31c-1,0-1.67.65-1.67,1.61,0,.8.52,1.61,1.67,1.61.98,0,1.67-.66,1.67-1.61s-.69-1.61-1.67-1.61ZM15.14,6.79c-.6,0-.87-.28-.87-.87s.28-.87.87-.87.87.28.87.87-.28.87-.87.87Z" style="fill: #afafaf;"/>
        <path d="M18.76,4.31c-1,0-1.67.65-1.67,1.61,0,.8.52,1.61,1.67,1.61.98,0,1.67-.66,1.67-1.61s-.69-1.61-1.67-1.61ZM18.76,6.79c-.6,0-.87-.28-.87-.87s.28-.87.87-.87.87.28.87.87-.28.87-.87.87Z" style="fill: #afafaf;"/>
        <path d="M23.16,4.67c-.27-.23-.66-.36-1.1-.36-1.38,0-1.42,1.41-1.42,1.57v.07c0,.16.04,1.57,1.42,1.57.44,0,.83-.13,1.1-.36v.29h.8V3.29h-.8v1.38ZM23.11,5.92c0,.26-.03.43-.09.55-.23.42-.65.41-.88.36-.36-.07-.7-.24-.7-.96,0-.53.3-.91.73-.91.31,0,.68.11.82.36.08.13.12.4.12.57h0Z" style="fill: #afafaf;"/>
        <polygon points="29.34 5.18 27.07 5.18 27.07 3.56 26.27 3.56 26.27 7.45 27.07 7.45 27.07 5.92 29.34 5.92 29.34 7.45 30.14 7.45 30.14 3.56 29.34 3.56 29.34 5.18" style="fill: #afafaf;"/>
        <path d="M33.02,6.5c-.07.17-.4.3-.79.3-.51,0-.78-.2-.85-.63h2.49v-.57c-.07-.76-.74-1.29-1.64-1.29-1,0-1.67.65-1.67,1.61s.67,1.61,1.67,1.61c.81,0,1.48-.41,1.62-.99l.02-.08h-.84l-.02.04ZM31.41,5.51c.11-.32.38-.48.82-.48.47,0,.77.17.83.48h-1.65Z" style="fill: #afafaf;"/>
        <path d="M36.62,4.36c-.15-.03-.31-.05-.47-.05-.42,0-.76.12-1.03.36v-.37h-.8v3.15h.8v-1.51c0-.15.08-.43.18-.55.26-.3.7-.48,1.11-.45h.05s.23-.57.23-.57l-.07-.02Z" style="fill: #afafaf;"/>
        <path d="M39.16,6.46l-.02.04c-.07.17-.4.3-.79.3-.51,0-.78-.2-.85-.63h2.49v-.57c-.07-.76-.74-1.29-1.64-1.29-1,0-1.67.65-1.67,1.61s.67,1.61,1.67,1.61c.81,0,1.48-.41,1.62-.99l.02-.08h-.84ZM37.54,5.51c.11-.32.38-.48.82-.48.47,0,.77.17.83.48h-1.65Z" style="fill: #afafaf;"/>
        <circle cx="10.69" cy="2.96" r=".6" style="fill: #afafaf;"/>
      </g>
    </g>
  </g>
</svg>