<svg width="48" height="48" viewBox="0 0 48 48" fill="none" xmlns="http://www.w3.org/2000/svg">
<path d="M29.44 25.2375H31.52C32.03 25.2375 32.44 24.8086 32.44 24.298C32.44 23.7873 32.02 23.3584 31.52 23.3584H29.44C29.44 23.3584 29.36 23.3584 29.32 23.3686C29.29 23.1746 29.26 22.9907 29.21 22.8069C29.25 22.7967 29.29 22.7865 29.33 22.7661L31.25 21.949C31.72 21.7448 31.94 21.1933 31.75 20.7133C31.55 20.2333 31.01 20.0086 30.54 20.2027L28.62 21.0197C28.62 21.0197 28.55 21.0605 28.51 21.0809C28.42 20.9278 28.32 20.7746 28.21 20.6214C28.24 20.6009 28.28 20.5703 28.31 20.5397L29.78 19.0384C30.14 18.6707 30.14 18.0682 29.78 17.7005C29.42 17.3329 28.83 17.3329 28.47 17.7005L27 19.2018C27 19.2018 26.95 19.2631 26.92 19.3039C26.77 19.1916 26.61 19.0895 26.45 18.9873C26.47 18.9465 26.49 18.9158 26.51 18.875L27.3 16.9141C27.49 16.4341 27.27 15.8827 26.8 15.6784C26.33 15.4741 25.79 15.709 25.59 16.189L24.8 18.1499C24.8 18.1499 24.78 18.2316 24.76 18.2724C24.59 18.2316 24.41 18.1907 24.23 18.1703C24.23 18.1295 24.24 18.0886 24.24 18.0478V15.9337C24.24 15.4129 23.82 14.9941 23.32 14.9941C22.82 14.9941 22.4 15.4231 22.4 15.9337V18.058C22.4 18.058 22.4 18.1397 22.41 18.1805C22.22 18.2112 22.04 18.2418 21.86 18.2929C21.85 18.252 21.84 18.2112 21.82 18.1703L21.02 16.2095C20.82 15.7295 20.28 15.5048 19.81 15.6988C19.34 15.9031 19.12 16.4546 19.31 16.9346L20.11 18.8954C20.11 18.8954 20.15 18.9669 20.17 19.0078C20.02 19.0997 19.87 19.2018 19.72 19.3141C19.7 19.2835 19.67 19.2427 19.64 19.212L18.17 17.7107C17.81 17.3431 17.22 17.3431 16.86 17.7107C16.5 18.0784 16.5 18.6809 16.86 19.0486L18.33 20.5499C18.33 20.5499 18.39 20.6009 18.43 20.6316C18.32 20.7848 18.22 20.9482 18.12 21.1116C18.08 21.0912 18.05 21.0707 18.01 21.0503L16.09 20.2435C15.62 20.0495 15.08 20.2741 14.88 20.7541C14.69 21.2341 14.91 21.7856 15.38 21.9899L17.3 22.7967C17.3 22.7967 17.38 22.8171 17.42 22.8375C17.38 23.0112 17.34 23.195 17.32 23.3788C17.28 23.3788 17.24 23.3686 17.2 23.3686H15.14C14.63 23.3686 14.22 23.7975 14.22 24.3082C14.22 24.8188 14.64 25.2478 15.14 25.2478H17.22C17.22 25.2478 17.3 25.2478 17.34 25.2375C17.37 25.4316 17.4 25.6154 17.45 25.7992C17.41 25.8095 17.37 25.8197 17.33 25.8401L15.41 26.6571C14.94 26.8614 14.72 27.4129 14.91 27.8929C15.11 28.3729 15.65 28.5975 16.12 28.4035L18.04 27.5865C18.04 27.5865 18.11 27.5456 18.15 27.5252C18.24 27.6784 18.34 27.8316 18.45 27.9848C18.42 28.0052 18.38 28.0358 18.35 28.0665L16.88 29.5678C16.52 29.9354 16.52 30.538 16.88 30.9056C17.24 31.2733 17.83 31.2733 18.19 30.9056L19.66 29.4044C19.66 29.4044 19.71 29.3431 19.74 29.3022C19.89 29.4146 20.05 29.5167 20.21 29.6188C20.19 29.6597 20.17 29.6903 20.15 29.7312L19.36 31.692C19.17 32.172 19.39 32.7235 19.86 32.9278C20.33 33.1218 20.87 32.8971 21.07 32.4171L21.86 30.4563C21.86 30.4563 21.88 30.3746 21.9 30.3337C22.07 30.3746 22.25 30.4154 22.43 30.4358C22.43 30.4767 22.42 30.5175 22.42 30.5584V32.6827C22.42 33.2035 22.84 33.6222 23.34 33.6222C23.84 33.6222 24.26 33.1933 24.26 32.6827V30.5584C24.26 30.5584 24.26 30.4767 24.25 30.4358C24.44 30.4052 24.62 30.3746 24.8 30.3235C24.81 30.3644 24.82 30.4052 24.84 30.4461L25.64 32.4069C25.84 32.8869 26.38 33.1116 26.85 32.9175C27.32 32.7133 27.54 32.1618 27.35 31.6818L26.55 29.7209C26.55 29.7209 26.51 29.6495 26.49 29.6086C26.64 29.5167 26.79 29.4146 26.94 29.3022C26.96 29.3329 26.99 29.3737 27.02 29.4044L28.49 30.9056C28.85 31.2733 29.44 31.2733 29.8 30.9056C30.16 30.538 30.16 29.9354 29.8 29.5678L28.33 28.0665C28.33 28.0665 28.27 28.0154 28.23 27.9848C28.34 27.8316 28.44 27.6682 28.54 27.5048C28.58 27.5252 28.61 27.5456 28.65 27.5661L30.57 28.3729C31.04 28.5669 31.58 28.3422 31.78 27.8622C31.97 27.3822 31.75 26.8307 31.28 26.6265L29.36 25.8197C29.36 25.8197 29.28 25.7992 29.24 25.7788C29.28 25.6052 29.32 25.4214 29.34 25.2375C29.38 25.2375 29.42 25.2478 29.46 25.2478L29.44 25.2375Z" fill="#FF9815"/>
</svg>
