<svg width="146" height="26" viewBox="0 0 146 26" fill="none" xmlns="http://www.w3.org/2000/svg">
<g clip-path="url(#clip0_812_4741)">
<path d="M21.5678 11.3807C19.8061 13.1805 17.6302 14.5454 15.4215 15.6895C15.244 15.7832 14.2646 16.2515 13.18 16.7399C12.4306 17.0745 11.576 17.0745 10.8266 16.7399C9.73542 16.2515 8.76253 15.7832 8.57847 15.6895C6.37634 14.5454 4.19392 13.1805 2.43879 11.3807C2.43879 11.3807 2.43221 11.374 2.42564 11.3673C1.96549 10.8923 1.17667 11.2067 1.17667 11.8691V24.18C1.17667 25.1836 1.97864 25.9998 2.96467 25.9998H6.96796C7.95399 25.9998 8.75596 25.1836 8.75596 24.18V21.6777C8.75596 21.3632 9.00575 21.109 9.31471 21.109H14.8233C15.1323 21.109 15.3821 21.3632 15.3821 21.6777V24.18C15.3821 25.1836 16.1841 25.9998 17.1701 25.9998H21.1734C22.1594 25.9998 22.9548 25.1903 22.9548 24.1867V11.7219C22.9548 11.0462 22.1331 10.7384 21.6927 11.2469C21.6467 11.3004 21.6007 11.3472 21.5612 11.3874L21.5678 11.3807Z" fill="#00AA54"/>
<path d="M21.18 8.51044H23.0666C23.3032 8.51044 23.5136 8.36324 23.5924 8.14245C24.0657 6.78424 24.1578 5.31229 23.6713 3.90056C22.3763 0.187227 18.0772 -0.990333 14.8496 0.869677C13.903 1.41162 13.0814 2.16767 12.4634 3.07091C12.2334 3.40545 11.7666 3.40545 11.5366 3.07091C10.9187 2.16767 10.097 1.40493 9.15695 0.869677C5.92276 -0.990333 1.62367 0.187227 0.328679 3.90056C-0.164336 5.31229 -0.0723066 6.78424 0.400988 8.14245C0.479871 8.36993 0.696798 8.51044 0.926872 8.51044H6.96796C7.95399 8.51044 8.75596 9.3267 8.75596 10.3303V12.8326C8.75596 13.1471 9.00576 13.4013 9.31471 13.4013H14.8233C15.1323 13.4013 15.3821 13.1471 15.3821 12.8326V10.3303C15.3821 9.3267 16.1841 8.51044 17.1701 8.51044H21.1734H21.18Z" fill="#00AA54"/>
</g>
<g clip-path="url(#clip1_812_4741)">
<path d="M40.2157 16.2719L34.9028 8.00342H32V22.0599H34.8852V12.859L38.7731 18.9284H41.6583L45.5639 12.8414V22.0599H48.4491L48.4667 8.00342H45.5287L40.2157 16.2719Z" fill="#00AA54"/>
<path d="M56.2778 10.7129C52.6713 10.7129 50.2435 13.0351 50.2435 16.5009C50.2435 19.386 52.1083 22.2888 56.2778 22.2888C59.8139 22.2888 62.2944 19.9138 62.2944 16.5009C62.2944 13.0879 59.8139 10.7129 56.2778 10.7129ZM56.2778 19.6675C54.1315 19.6675 53.1287 18.6647 53.1287 16.5184C53.1287 14.3721 54.1315 13.3694 56.2778 13.3694C58.4241 13.3694 59.4093 14.3721 59.4093 16.5184C59.4093 18.6647 58.4065 19.6675 56.2778 19.6675Z" fill="#00AA54"/>
<path d="M69.3491 10.7129C65.7426 10.7129 63.3148 13.0351 63.3148 16.5009C63.3148 19.386 65.1796 22.2888 69.3491 22.2888C72.8852 22.2888 75.3657 19.9138 75.3657 16.5009C75.3657 13.0879 72.8852 10.7129 69.3491 10.7129ZM69.3491 19.6675C67.2028 19.6675 66.2 18.6647 66.2 16.5184C66.2 14.3721 67.2028 13.3694 69.3491 13.3694C71.4954 13.3694 72.4806 14.3721 72.4806 16.5184C72.4806 18.6647 71.4778 19.6675 69.3491 19.6675Z" fill="#00AA54"/>
<path d="M85.2176 12.0149C84.2324 11.188 82.825 10.713 81.2593 10.713C76.2981 10.713 76.1398 15.7973 76.1398 16.3778V16.6241C76.1398 17.2047 76.2806 22.3065 81.2593 22.3065C82.825 22.3065 84.25 21.8315 85.2176 21.0047V22.0602H88.1028V7.01855H85.2176V11.9973V12.0149ZM85.0417 16.5361C85.0417 17.4861 84.9361 18.0843 84.7074 18.5417C83.8806 20.0547 82.3676 20.0019 81.5407 19.8436C80.2389 19.5797 79.025 18.9991 79.025 16.3954C79.025 14.4602 80.0981 13.1232 81.6463 13.1232C82.7546 13.1232 84.0917 13.5278 84.6194 14.425C84.8833 14.9 85.0593 15.85 85.0593 16.4834V16.5361H85.0417Z" fill="#00AA54"/>
<path d="M107.525 13.8793H99.3444V8.00342H96.4593V22.0599H99.3444V16.5358H107.525V22.0599H110.41V8.00342H107.525V13.8793Z" fill="#00AA54"/>
<path d="M120.825 18.612C120.579 19.2453 119.365 19.7027 117.975 19.7027C116.145 19.7027 115.16 18.9814 114.896 17.4333H123.886V15.3573C123.657 12.6129 121.212 10.7129 117.975 10.7129C114.369 10.7129 111.941 13.0351 111.941 16.5009C111.941 19.9666 114.369 22.324 117.975 22.324C120.895 22.324 123.306 20.8638 123.833 18.7527L123.904 18.4712H120.878L120.825 18.612ZM115.002 15.0407C115.406 13.8796 116.374 13.299 117.957 13.299C119.664 13.299 120.737 13.9323 120.966 15.0407H115.002Z" fill="#00AA54"/>
<path d="M133.808 10.8888C133.263 10.7657 132.682 10.7129 132.119 10.7129C130.606 10.7129 129.357 11.1527 128.407 12.0148V10.6953H125.522V22.0601H128.407V16.6064C128.407 16.0611 128.706 15.0407 129.058 14.6185C129.991 13.5277 131.592 12.8768 133.052 12.9999H133.21L134.055 10.9416L133.791 10.8888H133.808Z" fill="#00AA54"/>
<path d="M142.974 18.4712L142.921 18.612C142.675 19.2453 141.461 19.7027 140.071 19.7027C138.242 19.7027 137.256 18.9814 136.993 17.4333H145.982V15.3573C145.754 12.6129 143.308 10.7129 140.071 10.7129C136.465 10.7129 134.037 13.0351 134.037 16.5009C134.037 19.9666 136.465 22.324 140.071 22.324C142.992 22.324 145.402 20.8638 145.93 18.7527L146 18.4712H142.974ZM137.098 15.0407C137.503 13.8796 138.47 13.299 140.054 13.299C141.76 13.299 142.833 13.9323 143.062 15.0407H137.098Z" fill="#00AA54"/>
<path d="M40.2333 7.98595C41.4187 7.98595 42.3796 7.02502 42.3796 5.83966C42.3796 4.65429 41.4187 3.69336 40.2333 3.69336C39.048 3.69336 38.087 4.65429 38.087 5.83966C38.087 7.02502 39.048 7.98595 40.2333 7.98595Z" fill="#00AA54"/>
</g>
<defs>
<clipPath id="clip0_812_4741">
<rect width="24" height="26" fill="white"/>
</clipPath>
<clipPath id="clip1_812_4741">
<rect width="114" height="18.613" fill="white" transform="translate(32 3.69336)"/>
</clipPath>
</defs>
</svg>
