<svg width="131" height="113" viewBox="0 0 131 113" fill="none" xmlns="http://www.w3.org/2000/svg">
<path d="M91.1061 39.4582C86.3913 44.275 80.5681 47.9278 74.657 50.9898C74.182 51.2405 71.5607 52.4939 68.6579 53.801C66.6523 54.6963 64.3653 54.6963 62.3597 53.801C59.4393 52.4939 56.8356 51.2405 56.343 50.9898C50.4495 47.9278 44.6087 44.275 39.9115 39.4582C39.9115 39.4582 39.8939 39.4403 39.8763 39.4224C38.6448 38.1511 36.5337 38.9926 36.5337 40.7654V73.7127C36.5337 76.3986 38.68 78.5832 41.3189 78.5832H52.0328C54.6717 78.5832 56.818 76.3986 56.818 73.7127V67.0158C56.818 66.1742 57.4866 65.4938 58.3134 65.4938H73.0561C73.8829 65.4938 74.5514 66.1742 74.5514 67.0158V73.7127C74.5514 76.3986 76.6977 78.5832 79.3366 78.5832H90.0506C92.6895 78.5832 94.8182 76.4165 94.8182 73.7306V40.3714C94.8182 38.5629 92.6191 37.7392 91.4404 39.1001C91.3172 39.2433 91.1941 39.3687 91.0885 39.4761L91.1061 39.4582Z" fill="#00AA54"/>
<path d="M90.068 31.7767H95.1171C95.7504 31.7767 96.3134 31.3828 96.5245 30.7919C97.7912 27.1569 98.0374 23.2176 96.7356 19.4394C93.2698 9.50148 81.7642 6.34999 73.1263 11.3279C70.5929 12.7783 68.3938 14.8017 66.7401 17.219C66.1244 18.1143 64.8753 18.1143 64.2596 17.219C62.6059 14.8017 60.4068 12.7604 57.891 11.3279C49.2354 6.34999 37.7299 9.50148 34.2641 19.4394C32.9447 23.2176 33.1909 27.1569 34.4576 30.7919C34.6687 31.4007 35.2493 31.7767 35.865 31.7767H52.0327C54.6716 31.7767 56.8179 33.9613 56.8179 36.6472V43.3441C56.8179 44.1857 57.4864 44.8661 58.3133 44.8661H73.0559C73.8827 44.8661 74.5513 44.1857 74.5513 43.3441V36.6472C74.5513 33.9613 76.6976 31.7767 79.3365 31.7767H90.0504H90.068Z" fill="#00AA54"/>
<g clip-path="url(#clip0_894_704)">
<path d="M15.432 99.1319L9.97918 90.6458H7.00002V105.072H9.96113V95.6291L13.9514 101.858H16.9125L20.9208 95.611V105.072H23.882L23.9 90.6458H20.8847L15.432 99.1319Z" fill="#00AA54"/>
<path d="M31.9167 93.4263C28.2153 93.4263 25.7236 95.8096 25.7236 99.3665C25.7236 102.328 27.6375 105.307 31.9167 105.307C35.5458 105.307 38.0917 102.869 38.0917 99.3665C38.0917 95.8638 35.5458 93.4263 31.9167 93.4263ZM31.9167 102.617C29.7139 102.617 28.6847 101.587 28.6847 99.3846C28.6847 97.1818 29.7139 96.1527 31.9167 96.1527C34.1194 96.1527 35.1306 97.1818 35.1306 99.3846C35.1306 101.587 34.1014 102.617 31.9167 102.617Z" fill="#00AA54"/>
<path d="M45.3319 93.4263C41.6306 93.4263 39.1389 95.8096 39.1389 99.3665C39.1389 102.328 41.0528 105.307 45.3319 105.307C48.9611 105.307 51.5069 102.869 51.5069 99.3665C51.5069 95.8638 48.9611 93.4263 45.3319 93.4263ZM45.3319 102.617C43.1292 102.617 42.1 101.587 42.1 99.3846C42.1 97.1818 43.1292 96.1527 45.3319 96.1527C47.5347 96.1527 48.5458 97.1818 48.5458 99.3846C48.5458 101.587 47.5167 102.617 45.3319 102.617Z" fill="#00AA54"/>
<path d="M61.6181 94.7623C60.6069 93.9137 59.1625 93.4262 57.5556 93.4262C52.4639 93.4262 52.3014 98.6442 52.3014 99.2401V99.4929C52.3014 100.089 52.4458 105.325 57.5556 105.325C59.1625 105.325 60.625 104.837 61.6181 103.989V105.072H64.5792V89.6345H61.6181V94.7442V94.7623ZM61.4375 99.4026C61.4375 100.378 61.3292 100.991 61.0944 101.461C60.2458 103.014 58.6931 102.96 57.8444 102.797C56.5083 102.526 55.2625 101.93 55.2625 99.2581C55.2625 97.272 56.3639 95.8998 57.9528 95.8998C59.0903 95.8998 60.4625 96.3151 61.0042 97.2359C61.275 97.7234 61.4556 98.6984 61.4556 99.3484V99.4026H61.4375Z" fill="#00AA54"/>
<path d="M84.5125 96.6763H76.1166V90.6458H73.1555V105.072H76.1166V99.4027H84.5125V105.072H87.4736V90.6458H84.5125V96.6763Z" fill="#00AA54"/>
<path d="M98.1625 101.533C97.9097 102.183 96.6639 102.653 95.2375 102.653C93.3597 102.653 92.3486 101.912 92.0778 100.323H101.304V98.1929C101.069 95.3763 98.5597 93.4263 95.2375 93.4263C91.5361 93.4263 89.0444 95.8096 89.0444 99.3665C89.0444 102.923 91.5361 105.343 95.2375 105.343C98.2347 105.343 100.708 103.844 101.25 101.678L101.322 101.389H98.2167L98.1625 101.533ZM92.1861 97.8679C92.6014 96.6763 93.5945 96.0804 95.2195 96.0804C96.9708 96.0804 98.0722 96.7304 98.3069 97.8679H92.1861Z" fill="#00AA54"/>
<path d="M111.488 93.6068C110.928 93.4804 110.332 93.4263 109.754 93.4263C108.201 93.4263 106.919 93.8776 105.944 94.7624V93.4082H102.983V105.072H105.944V99.4749C105.944 98.9151 106.251 97.8679 106.613 97.4346C107.569 96.3151 109.213 95.6471 110.711 95.7735H110.874L111.74 93.661L111.469 93.6068H111.488Z" fill="#00AA54"/>
<path d="M120.894 101.389L120.84 101.533C120.587 102.183 119.342 102.653 117.915 102.653C116.037 102.653 115.026 101.912 114.756 100.323H123.982V98.1929C123.747 95.3763 121.237 93.4263 117.915 93.4263C114.214 93.4263 111.722 95.8096 111.722 99.3665C111.722 102.923 114.214 105.343 117.915 105.343C120.912 105.343 123.386 103.844 123.928 101.678L124 101.389H120.894ZM114.864 97.8679C115.279 96.6763 116.272 96.0804 117.897 96.0804C119.649 96.0804 120.75 96.7304 120.985 97.8679H114.864Z" fill="#00AA54"/>
<path d="M15.45 90.6277C16.6666 90.6277 17.6528 89.6415 17.6528 88.4249C17.6528 87.2084 16.6666 86.2222 15.45 86.2222C14.2334 86.2222 13.2472 87.2084 13.2472 88.4249C13.2472 89.6415 14.2334 90.6277 15.45 90.6277Z" fill="#00AA54"/>
</g>
<defs>
<clipPath id="clip0_894_704">
<rect width="117" height="19.1028" fill="white" transform="translate(7 86.2222)"/>
</clipPath>
</defs>
</svg>
