<?xml version="1.0" encoding="UTF-8"?>
<svg id="Layer_1" data-name="Layer 1" xmlns="http://www.w3.org/2000/svg" viewBox="0 0 36.51 47.23">
  <g>
    <path d="M32.81,17.01c-2.68,2.69-5.99,4.73-9.35,6.44-.27.14-1.76.84-3.41,1.57-1.14.5-2.44.5-3.58,0-1.66-.73-3.14-1.43-3.42-1.57-3.35-1.71-6.67-3.75-9.34-6.44,0,0-.01-.01-.02-.02-.7-.71-1.9-.24-1.9.75v18.4c0,1.5,1.22,2.72,2.72,2.72h6.09c1.5,0,2.72-1.22,2.72-2.72v-3.74c0-.47.38-.85.85-.85h8.38c.47,0,.85.38.85.85v3.74c0,1.5,1.22,2.72,2.72,2.72h6.09c1.5,0,2.71-1.21,2.71-2.71v-18.63c0-1.01-1.25-1.47-1.92-.71-.07.08-.14.15-.2.21Z" style="fill: #c9c9c9;"/>
    <path d="M32.22,12.72h2.87c.36,0,.68-.22.8-.55.72-2.03.86-4.23.12-6.34C34.04.28,27.5-1.48,22.59,1.3c-1.44.81-2.69,1.94-3.63,3.29-.35.5-1.06.5-1.41,0-.94-1.35-2.19-2.49-3.62-3.29C9.01-1.48,2.47.28.5,5.83c-.75,2.11-.61,4.31.11,6.34.12.34.45.55.8.55h9.19c1.5,0,2.72,1.22,2.72,2.72h0v3.74c0,.47.38.85.85.85h8.38c.47,0,.85-.38.85-.85v-3.74h0c0-1.5,1.22-2.72,2.72-2.72h6.09Z" style="fill: #c9c9c9;"/>
  </g>
  <g>
    <polygon points="2.63 45.29 .93 42.65 0 42.65 0 47.15 .92 47.15 .92 44.2 2.17 46.15 3.09 46.15 4.35 44.19 4.35 47.15 5.27 47.15 5.27 42.65 4.33 42.65 2.63 45.29" style="fill: #c9c9c9;"/>
    <path d="M7.77,43.51c-1.16,0-1.93.75-1.93,1.86,0,.92.6,1.86,1.93,1.86,1.13,0,1.93-.76,1.93-1.86s-.79-1.86-1.93-1.86ZM7.77,46.38c-.69,0-1.01-.32-1.01-1.01s.32-1.01,1.01-1.01,1,.32,1,1.01-.32,1.01-1,1.01Z" style="fill: #c9c9c9;"/>
    <path d="M11.96,43.51c-1.16,0-1.93.75-1.93,1.86,0,.92.6,1.86,1.93,1.86,1.13,0,1.93-.76,1.93-1.86s-.79-1.86-1.93-1.86ZM11.96,46.38c-.69,0-1.01-.32-1.01-1.01s.32-1.01,1.01-1.01,1,.32,1,1.01-.32,1.01-1,1.01Z" style="fill: #c9c9c9;"/>
    <path d="M17.04,43.93c-.31-.27-.77-.41-1.27-.41-1.59,0-1.64,1.63-1.64,1.82v.08c0,.19.05,1.82,1.64,1.82.5,0,.96-.15,1.27-.41v.34h.92v-4.82h-.92v1.6ZM16.99,45.38c0,.3-.03.49-.11.64-.27.48-.75.47-1.01.42-.42-.08-.8-.27-.8-1.11,0-.62.34-1.05.84-1.05.35,0,.78.13.95.42.09.15.14.46.14.66v.02Z" style="fill: #c9c9c9;"/>
    <polygon points="24.19 44.52 21.56 44.52 21.56 42.65 20.64 42.65 20.64 47.15 21.56 47.15 21.56 45.38 24.19 45.38 24.19 47.15 25.11 47.15 25.11 42.65 24.19 42.65 24.19 44.52" style="fill: #c9c9c9;"/>
    <path d="M28.44,46.04c-.08.2-.47.35-.91.35-.59,0-.9-.23-.98-.73h2.88v-.66c-.08-.88-.86-1.49-1.9-1.49-1.16,0-1.93.75-1.93,1.86s.78,1.86,1.93,1.86c.93,0,1.71-.47,1.88-1.14l.02-.09h-.97l-.02.04ZM26.58,44.9c.13-.37.44-.56.95-.56.54,0,.89.2.96.56h-1.91Z" style="fill: #c9c9c9;"/>
    <path d="M32.6,43.57c-.18-.04-.36-.06-.54-.06-.48,0-.88.14-1.19.42v-.42h-.92v3.64h.92v-1.75c0-.18.09-.5.21-.64.3-.35.81-.56,1.28-.52h.05s.27-.66.27-.66l-.08-.02Z" style="fill: #c9c9c9;"/>
    <path d="M35.54,46l-.02.04c-.08.2-.47.35-.91.35-.59,0-.9-.23-.98-.73h2.88v-.66c-.08-.88-.86-1.49-1.9-1.49-1.16,0-1.93.75-1.93,1.86s.78,1.86,1.93,1.86c.93,0,1.71-.47,1.88-1.14l.02-.09h-.97ZM33.66,44.9c.13-.37.44-.56.95-.56.54,0,.89.2.96.56h-1.91Z" style="fill: #c9c9c9;"/>
    <circle cx="2.64" cy="41.96" r=".69" style="fill: #c9c9c9;"/>
  </g>
</svg>