<svg width="84" height="109" viewBox="0 0 84 109" fill="none" xmlns="http://www.w3.org/2000/svg">
<path d="M76.8362 -0.000226003L6.73285 0.074953C3.01041 0.0789449 -0.00398865 3.09982 3.63603e-06 6.82226L0.102 101.921C0.105992 105.644 3.12686 108.658 6.8493 108.654L76.9526 108.579C80.6751 108.575 83.6895 105.554 83.6855 101.832L83.5835 6.73262C83.5795 3.01018 80.5586 -0.00421805 76.8362 -0.000226003Z" fill="#F2F2F2"/>
<path d="M83.5848 6.73885L83.6915 101.823C83.6954 105.555 80.6826 108.577 76.9498 108.581L6.86286 108.655C5.52995 108.659 4.27505 108.27 3.23341 107.597C3.76638 107.765 4.3246 107.849 4.91877 107.851L76.856 107.772C80.0821 107.77 82.685 105.152 82.6812 101.937L82.5591 5.00115C82.5623 4.01086 82.3227 3.08937 81.8774 2.27605C82.9531 3.46077 83.5797 5.02053 83.5848 6.73885Z" fill="#A8A8A8"/>
<path d="M71.5452 6.00434L12.035 6.06816C9.51142 6.07087 7.46784 8.11883 7.47055 10.6424L7.52584 62.197C7.52855 64.7205 9.57652 66.7641 12.1001 66.7614L71.6103 66.6976C74.1339 66.6949 76.1775 64.6469 76.1748 62.1233L76.1195 10.5688C76.1168 8.04521 74.0688 6.00163 71.5452 6.00434Z" fill="#FF9815"/>
<path d="M67.6561 38.5891C64.7488 41.5077 61.1569 43.7265 57.5162 45.5846C57.216 45.7317 55.6112 46.4938 53.8135 47.2891C52.5752 47.8382 51.1656 47.8408 49.938 47.2908C48.1348 46.4998 46.5242 45.7416 46.2196 45.5907C42.582 43.7392 38.9724 41.5292 36.0769 38.6149C36.0769 38.6149 36.0574 38.6006 36.0592 38.5899C35.298 37.8219 34.0009 38.328 33.9938 39.4058L34.011 59.3796C34.0093 61.0087 35.3361 62.3352 36.967 62.3262L43.5744 62.3156C45.2035 62.3173 46.53 60.9905 46.521 59.3596L46.5163 55.3073C46.5144 54.8006 46.928 54.3755 47.4454 54.3754L56.5402 54.3693C57.0469 54.3673 57.472 54.7809 57.4721 55.2984L57.4768 59.3506C57.4751 60.9797 58.8019 62.3062 60.4328 62.2972L67.0402 62.2866C68.6693 62.2883 69.9833 60.9704 69.9743 59.3395L69.9562 39.1122C69.9562 38.0113 68.5981 37.5162 67.8639 38.3382C67.7833 38.4236 67.7153 38.5001 67.649 38.5659L67.6561 38.5891Z" fill="white"/>
<path d="M67.0164 33.9335L70.1318 33.9347C70.5172 33.9342 70.8766 33.698 71.0045 33.3344C71.7861 31.1333 71.9383 28.7482 71.1179 26.4509C68.9713 20.4271 61.874 18.5269 56.5487 21.5519C54.9792 22.43 53.6352 23.6658 52.6151 25.1328C52.2369 25.674 51.466 25.675 51.0841 25.1367C50.0558 23.6738 48.7019 22.4418 47.1434 21.5713C41.7985 18.5598 34.7013 20.4799 32.5762 26.504C31.7694 28.7889 31.924 31.1822 32.7055 33.3848C32.831 33.7474 33.1871 33.9841 33.5725 33.9836L36.9306 33.982L39.3431 33.9738L43.538 33.9714C45.1671 33.9731 46.4957 35.2889 46.494 36.918L46.4987 40.9702C46.5006 41.477 46.9132 41.8994 47.4307 41.8993L56.5254 41.8932C57.0322 41.8913 57.4546 41.4787 57.4545 40.9612L57.4498 36.909C57.4515 35.2799 58.7674 33.9513 60.3964 33.953L67.0038 33.9424L67.0164 33.9335Z" fill="white"/>
<path d="M73.1314 78.9113L74.7498 78.9112C75.1459 78.9125 75.4664 78.5817 75.4676 78.1856C75.4689 77.7894 75.1381 77.469 74.742 77.4677L73.1236 77.4678C73.1236 77.4678 73.0558 77.4783 73.0236 77.4728C73.0045 77.3264 72.9728 77.1889 72.943 77.0407C72.9769 77.0355 73.0001 77.0284 73.0359 77.0125L74.5296 76.3857C74.8959 76.2388 75.0686 75.8057 74.9198 75.4502C74.7729 75.0839 74.3399 74.9112 73.9843 75.0599L72.4906 75.6867C72.4906 75.6867 72.4298 75.7205 72.4048 75.7382C72.3374 75.6167 72.2574 75.504 72.1668 75.3895C72.1918 75.3717 72.2169 75.354 72.2437 75.3255L73.3859 74.1765C73.6652 73.8937 73.6648 73.4423 73.382 73.163C73.0992 72.8838 72.6478 72.8841 72.3685 73.1669L71.2264 74.3158C71.2264 74.3158 71.1852 74.3639 71.169 74.3942C71.0515 74.3081 70.9323 74.2328 70.8022 74.1557C70.8184 74.1254 70.8327 74.1058 70.8489 74.0755L71.4676 72.5733C71.6187 72.2027 71.4362 71.7863 71.0763 71.6371C70.7163 71.4878 70.2893 71.6684 70.14 72.0284L69.5213 73.5305C69.5213 73.5305 69.5104 73.5947 69.4943 73.625C69.3552 73.6014 69.2179 73.567 69.077 73.5541C69.0824 73.522 69.0879 73.4899 69.0933 73.4578L69.0932 71.8394C69.0945 71.4433 68.7637 71.1228 68.3676 71.1215C67.9715 71.1202 67.651 71.4511 67.6497 71.8472L67.6498 73.4656C67.6498 73.4656 67.6603 73.5334 67.6548 73.5655C67.5084 73.5847 67.3709 73.6163 67.2227 73.6462C67.2175 73.6123 67.2104 73.589 67.1945 73.5533L66.5677 72.0596C66.4208 71.6933 65.9878 71.5206 65.6322 71.6693C65.2659 71.8162 65.0932 72.2493 65.242 72.6048L65.8688 74.0986C65.8688 74.0986 65.9025 74.1594 65.9202 74.1844C65.7987 74.2518 65.686 74.3317 65.5715 74.4224C65.5537 74.3973 65.536 74.3723 65.5075 74.3454L64.3586 73.2033C64.0758 72.924 63.6243 72.9243 63.345 73.2071C63.0658 73.4899 63.0661 73.9414 63.3489 74.2206L64.4979 75.3628C64.4979 75.3628 64.5459 75.404 64.5762 75.4201C64.4901 75.5376 64.4148 75.6569 64.3377 75.7869C64.3074 75.7708 64.2878 75.7564 64.2575 75.7403L62.7553 75.1216C62.3847 74.9705 61.9683 75.1529 61.8191 75.5129C61.668 75.8835 61.8504 76.2999 62.2104 76.4491L63.7125 77.0678C63.7125 77.0678 63.7768 77.0787 63.807 77.0949C63.7834 77.234 63.749 77.3713 63.7361 77.5122C63.704 77.5067 63.6719 77.5013 63.6398 77.4958L62.0214 77.4959C61.6253 77.4946 61.3048 77.8255 61.3035 78.2216C61.3022 78.6177 61.6331 78.9382 62.0292 78.9395L63.6476 78.9394C63.6476 78.9394 63.7154 78.9289 63.7475 78.9343C63.7667 79.0807 63.7983 79.2182 63.8282 79.3664C63.7943 79.3717 63.7711 79.3787 63.7353 79.3947L62.2416 80.0215C61.8753 80.1684 61.7026 80.6014 61.8513 80.957C61.9983 81.3232 62.4313 81.4959 62.7869 81.3472L64.2806 80.7204C64.2806 80.7204 64.3414 80.6867 64.3664 80.6689C64.4338 80.7905 64.5137 80.9032 64.6044 81.0177C64.5793 81.0354 64.5543 81.0532 64.5274 81.0816L63.3853 82.2306C63.106 82.5134 63.1063 82.9648 63.3891 83.2441C63.6719 83.5234 64.1234 83.5231 64.4027 83.2403L65.5448 82.0913C65.5448 82.0913 65.586 82.0433 65.6022 82.013C65.7196 82.099 65.8389 82.1744 65.9689 82.2515C65.9528 82.2818 65.9384 82.3014 65.9223 82.3316L65.3036 83.8338C65.1525 84.2045 65.3349 84.6208 65.6949 84.7701C66.0655 84.9212 66.4819 84.7387 66.6311 84.3788L67.2498 82.8766C67.2498 82.8766 67.2608 82.8124 67.2769 82.7821C67.416 82.8058 67.5533 82.8401 67.6942 82.8531C67.6888 82.8852 67.6833 82.9173 67.6778 82.9494L67.6779 84.5678C67.6767 84.9639 68.0075 85.2843 68.4036 85.2856C68.7997 85.2869 69.1202 84.9561 69.1215 84.56L69.1214 82.9416C69.1214 82.9416 69.1109 82.8737 69.1164 82.8416C69.2627 82.8225 69.4002 82.7908 69.5484 82.761C69.5537 82.7949 69.5607 82.8181 69.5767 82.8538L70.2035 84.3476C70.3504 84.7139 70.7834 84.8865 71.139 84.7378C71.5052 84.5909 71.678 84.1579 71.5292 83.8023L70.9024 82.3086C70.9024 82.3086 70.8687 82.2478 70.851 82.2228C70.9725 82.1553 71.0852 82.0754 71.1997 81.9848C71.2174 82.0098 71.2352 82.0349 71.2637 82.0617L72.4126 83.2039C72.6954 83.4831 73.1469 83.4828 73.4261 83.2C73.7054 82.9172 73.7051 82.4658 73.4223 82.1865L72.2733 81.0444C72.2733 81.0444 72.2253 81.0032 72.195 80.987C72.281 80.8695 72.3564 80.7502 72.4335 80.6202C72.4638 80.6364 72.4834 80.6507 72.5137 80.6669L74.0158 81.2856C74.3865 81.4367 74.8028 81.2542 74.9521 80.8943C75.1032 80.5236 74.9208 80.1073 74.5608 79.958L73.0586 79.3393C73.0586 79.3393 72.9944 79.3284 72.9641 79.3122C72.9878 79.1731 73.0221 79.0359 73.0351 78.8949C73.0672 78.9004 73.0993 78.9059 73.1314 78.9113Z" fill="#FF9815"/>
<path d="M41.858 73.7119L7.53897 73.7488L7.54382 78.2747L41.8629 78.2379L41.858 73.7119Z" fill="#A8A8A8"/>
<path d="M54.0121 80.7895L7.54786 80.8394L7.55271 85.3653L54.0169 85.3155L54.0121 80.7895Z" fill="#A8A8A8"/>
</svg>
