<svg width="84" height="109" viewBox="0 0 84 109" fill="none" xmlns="http://www.w3.org/2000/svg">
<path d="M76.8434 0H6.74008C3.01764 0 0 3.01764 0 6.74008V101.839C0 105.562 3.01764 108.579 6.74008 108.579H76.8434C80.5659 108.579 83.5835 105.562 83.5835 101.839V6.74008C83.5835 3.01764 80.5659 0 76.8434 0Z" fill="#F2F2F2"/>
<path d="M83.5835 6.74008V101.828C83.5835 105.562 80.5662 108.579 76.8326 108.579H6.74008C5.40509 108.579 4.15693 108.189 3.11498 107.516C3.64681 107.678 4.21119 107.765 4.79729 107.765H76.7349C79.9584 107.765 82.5633 105.15 82.5633 101.937V5.00351C82.5633 4.01583 82.3245 3.09327 81.8795 2.27925C82.954 3.4623 83.5835 5.02521 83.5835 6.74008Z" fill="#A8A8A8"/>
<path d="M71.5469 5.99118H12.0366C9.51304 5.99118 7.46727 8.03695 7.46727 10.5605V62.1151C7.46727 64.6387 9.51304 66.6845 12.0366 66.6845H71.5469C74.0705 66.6845 76.1162 64.6387 76.1162 62.1151V10.5605C76.1162 8.03695 74.0705 5.99118 71.5469 5.99118Z" fill="#007BBF"/>
<path d="M67.6287 38.5845C64.72 41.5041 61.1274 43.7183 57.4806 45.5742C57.1876 45.7262 55.5704 46.4859 53.7795 47.2782C52.5422 47.8209 51.1313 47.8209 49.894 47.2782C48.0923 46.4859 46.4859 45.7262 46.182 45.5742C42.5461 43.7183 38.9427 41.5041 36.0448 38.5845C36.0448 38.5845 36.0339 38.5737 36.0231 38.5628C35.2633 37.7922 33.9609 38.3023 33.9609 39.3768V59.3474C33.9609 60.9755 35.285 62.2996 36.9131 62.2996H43.5229C45.1509 62.2996 46.4751 60.9755 46.4751 59.3474V55.2882C46.4751 54.7781 46.8875 54.3656 47.3976 54.3656H56.4929C57.0031 54.3656 57.4155 54.7781 57.4155 55.2882V59.3474C57.4155 60.9755 58.7396 62.2996 60.3677 62.2996H66.9775C68.6056 62.2996 69.9188 60.9863 69.9188 59.3583V39.1381C69.9188 38.0418 68.5621 37.5426 67.835 38.3674C67.759 38.4543 67.683 38.5302 67.6179 38.5954L67.6287 38.5845Z" fill="white"/>
<path d="M70.1033 33.9283C70.4941 33.9283 70.8414 33.6895 70.9716 33.3314C71.7531 31.1281 71.9051 28.7403 71.1019 26.4502C68.9637 20.4265 61.8655 18.5162 56.5364 21.5335C54.9734 22.4127 53.6167 23.6391 52.5965 25.1044C52.2166 25.647 51.446 25.647 51.0662 25.1044C50.0459 23.6391 48.6892 22.4018 47.1372 21.5335C41.7972 18.5162 34.6989 20.4265 32.5608 26.4502C31.7468 28.7403 31.8987 31.1281 32.6802 33.3314C32.8104 33.7004 33.1686 33.9283 33.5485 33.9283H43.5229C45.1509 33.9283 46.4751 35.2525 46.4751 36.8805V40.9397C46.4751 41.4499 46.8875 41.8623 47.3976 41.8623H56.4929C57.0031 41.8623 57.4155 41.4499 57.4155 40.9397V36.8805C57.4155 35.2525 58.7396 33.9283 60.3677 33.9283H70.1033Z" fill="white"/>
<path d="M73.0555 78.9056H74.6727C75.0634 78.9056 75.3891 78.58 75.3891 78.1893C75.3891 77.7985 75.0634 77.4729 74.6727 77.4729H73.0555C73.0555 77.4729 72.9904 77.4729 72.9578 77.4729C72.9361 77.3318 72.9036 77.1799 72.871 77.0496C72.9036 77.0496 72.9361 77.0388 72.9687 77.0171L74.4665 76.3984C74.8355 76.2465 75.0092 75.8232 74.8572 75.4542C74.7053 75.0851 74.282 74.9115 73.913 75.0634L72.4152 75.6821C72.4152 75.6821 72.3609 75.7146 72.3283 75.7255C72.2524 75.6061 72.1764 75.4867 72.1004 75.3782C72.1221 75.3565 72.1547 75.3456 72.1764 75.3131L73.316 74.1734C73.5982 73.8912 73.5982 73.4354 73.316 73.1532C73.0338 72.871 72.578 72.871 72.2958 73.1532L71.1561 74.2928C71.1561 74.2928 71.1127 74.3471 71.091 74.3688C70.9716 74.282 70.8522 74.206 70.7329 74.13C70.7437 74.0975 70.7654 74.0758 70.7763 74.0432L71.3949 72.5454C71.5469 72.1764 71.3732 71.7531 71.0042 71.6011C70.6352 71.4492 70.2119 71.6228 70.0599 71.9919L69.4413 73.4897C69.4413 73.4897 69.4196 73.5548 69.4087 73.5874C69.2785 73.5548 69.1374 73.5331 68.9963 73.5114C68.9963 73.4788 68.9963 73.4462 68.9963 73.4137V71.7965C68.9963 71.4058 68.6707 71.0802 68.2799 71.0802C67.8892 71.0802 67.5636 71.4058 67.5636 71.7965V73.4137C67.5636 73.4137 67.5636 73.4788 67.5636 73.5114C67.4225 73.5331 67.2706 73.5656 67.1403 73.5982C67.1403 73.5656 67.1295 73.5331 67.1078 73.5005L66.4891 72.0027C66.3372 71.6337 65.9139 71.46 65.5448 71.612C65.1758 71.7639 65.0022 72.1872 65.1541 72.5563L65.7728 74.0541C65.7728 74.0541 65.8053 74.1083 65.8162 74.1409C65.6968 74.2169 65.5774 74.2928 65.4689 74.3688C65.4472 74.3471 65.4363 74.3145 65.4037 74.2928L64.2641 73.1532C63.9819 72.871 63.5261 72.871 63.2439 73.1532C62.9617 73.4354 62.9617 73.8912 63.2439 74.1734L64.3835 75.3131C64.3835 75.3131 64.4378 75.3565 64.4595 75.3782C64.3727 75.4976 64.2967 75.617 64.2207 75.7364C64.1881 75.7255 64.1664 75.7038 64.1339 75.6929L62.6361 75.0743C62.2671 74.9223 61.8438 75.096 61.6918 75.465C61.5399 75.834 61.7135 76.2573 62.0825 76.4093L63.5803 77.0279C63.5803 77.0279 63.6455 77.0496 63.678 77.0605C63.6455 77.1907 63.6238 77.3318 63.602 77.4729C63.5695 77.4729 63.5369 77.4729 63.5044 77.4729H61.8872C61.4965 77.4729 61.1708 77.7985 61.1708 78.1893C61.1708 78.58 61.4965 78.9056 61.8872 78.9056H63.5044C63.5044 78.9056 63.5695 78.9056 63.602 78.9056C63.6238 79.0467 63.6563 79.1986 63.6889 79.3289C63.6563 79.3289 63.6238 79.3398 63.5912 79.3615L62.0934 79.9801C61.7244 80.1321 61.5507 80.5553 61.7027 80.9244C61.8546 81.2934 62.2779 81.4671 62.6469 81.3151L64.1447 80.6964C64.1447 80.6964 64.199 80.6639 64.2316 80.653C64.3075 80.7724 64.3835 80.8918 64.4595 81.0003C64.4378 81.0221 64.4052 81.0329 64.3835 81.0655L63.2439 82.2051C62.9617 82.4873 62.9617 82.9431 63.2439 83.2253C63.5261 83.5075 63.9819 83.5075 64.2641 83.2253L65.4037 82.0857C65.4037 82.0857 65.4472 82.0314 65.4689 82.0097C65.5883 82.0966 65.7076 82.1725 65.827 82.2485C65.8162 82.2811 65.7945 82.3028 65.7836 82.3353L65.165 83.8331C65.013 84.2022 65.1867 84.6254 65.5557 84.7774C65.9247 84.9293 66.348 84.7557 66.5 84.3867L67.1186 82.8889C67.1186 82.8889 67.1403 82.8238 67.1512 82.7912C67.2814 82.8238 67.4225 82.8455 67.5636 82.8672C67.5636 82.8997 67.5636 82.9323 67.5636 82.9649V84.582C67.5636 84.9728 67.8892 85.2984 68.2799 85.2984C68.6707 85.2984 68.9963 84.9728 68.9963 84.582V82.9649C68.9963 82.9649 68.9963 82.8997 68.9963 82.8672C69.1374 82.8455 69.2893 82.8129 69.4196 82.7803C69.4196 82.8129 69.4304 82.8455 69.4521 82.878L70.0708 84.3758C70.2227 84.7448 70.646 84.9185 71.0151 84.7665C71.3841 84.6146 71.5577 84.1913 71.4058 83.8223L70.7871 82.3245C70.7871 82.3245 70.7546 82.2702 70.7437 82.2377C70.8631 82.1617 70.9825 82.0857 71.091 82.0097C71.1127 82.0314 71.1236 82.064 71.1561 82.0857L72.2958 83.2253C72.578 83.5075 73.0338 83.5075 73.316 83.2253C73.5982 82.9431 73.5982 82.4873 73.316 82.2051L72.1764 81.0655C72.1764 81.0655 72.1221 81.0221 72.1004 81.0003C72.1872 80.881 72.2632 80.7616 72.3392 80.6422C72.3718 80.653 72.3935 80.6747 72.426 80.6856L73.9238 81.3043C74.2928 81.4562 74.7161 81.2825 74.8681 80.9135C75.02 80.5445 74.8464 80.1212 74.4774 79.9693L72.9796 79.3506C72.9796 79.3506 72.9144 79.3289 72.8819 79.318C72.9144 79.1878 72.9361 79.0467 72.9578 78.9056C72.9904 78.9056 73.023 78.9056 73.0555 78.9056Z" fill="#FF9815"/>
<path d="M41.7863 73.6742H7.46727V78.2001H41.7863V73.6742Z" fill="#A8A8A8"/>
<path d="M53.9315 80.7724H7.46727V85.2984H53.9315V80.7724Z" fill="#A8A8A8"/>
</svg>
