<svg width="85" height="110" viewBox="0 0 85 110" fill="none" xmlns="http://www.w3.org/2000/svg">
<path d="M78.0134 0.808698L7.91466 0.000157265C4.19247 -0.0427758 1.14023 2.93986 1.09729 6.66205L0.000464839 101.755C-0.0424681 105.477 2.94016 108.529 6.66236 108.572L76.761 109.381C80.4832 109.424 83.5355 106.441 83.5784 102.719L84.6752 7.62607C84.7182 3.90387 81.7355 0.851632 78.0134 0.808698Z" fill="#F2F2F2"/>
<path d="M84.6765 7.63232L83.5846 102.71C83.5415 106.442 80.4907 109.426 76.7582 109.383L6.67591 108.573C5.34305 108.561 4.09316 108.156 3.06007 107.47C3.59089 107.644 4.14801 107.735 4.74211 107.745L76.6746 108.573C79.9005 108.612 82.5362 106.027 82.5729 102.811L83.6728 5.88183C83.6885 4.89165 83.4605 3.96721 83.0255 3.14835C84.0862 4.34653 84.6931 5.91406 84.6765 7.63232Z" fill="#A8A8A8"/>
<path d="M72.6471 6.74609L13.1408 6.05973C10.6174 6.03062 8.5482 8.05266 8.51909 10.5761L7.92448 62.1272C7.89538 64.6506 9.91742 66.7199 12.4408 66.749L71.9471 67.4353C74.4705 67.4644 76.5398 65.4424 76.5689 62.919L77.1635 11.3678C77.1926 8.84443 75.1706 6.7752 72.6471 6.74609Z" fill="#00BC4C"/>
<path d="M68.3475 39.2792C65.4037 42.161 61.7841 44.3343 58.1203 46.1464C57.8182 46.2897 56.2039 47.0314 54.3964 47.804C53.1513 48.3375 51.7417 48.3223 50.5211 47.7569C48.7281 46.9432 47.1272 46.1648 46.8245 46.0101C43.2105 44.1129 39.629 41.8575 36.7706 38.907C36.7706 38.907 36.7512 38.8924 36.7531 38.8817C36.0017 38.1042 34.6983 38.5939 34.6777 39.6715L34.4431 59.6439C34.4208 61.2729 35.7308 62.616 37.3617 62.6276L43.9687 62.7002C45.5976 62.7225 46.9407 61.4125 46.9523 59.7816L46.9987 55.7297C47.0032 55.2229 47.4221 54.8031 47.9395 54.8095L57.0336 54.918C57.5403 54.9225 57.9602 55.3414 57.9538 55.8588L57.9074 59.9107C57.8851 61.5397 59.1951 62.8828 60.826 62.8944L67.433 62.967C69.0619 62.9893 70.3924 61.688 70.404 60.0572L70.6408 39.8313C70.6547 38.7305 69.303 38.2183 68.5585 39.031C68.4768 39.1153 68.4078 39.191 68.3408 39.2559L68.3475 39.2792Z" fill="white"/>
<path d="M67.7666 34.6159L70.8817 34.6564C71.2671 34.6607 71.6295 34.4291 71.7619 34.0672C72.5712 31.8761 72.7535 29.4931 71.9621 27.1856C69.8916 21.1353 62.8189 19.1458 57.4558 22.1034C55.8754 22.9617 54.5158 24.1804 53.4774 25.6344C53.0923 26.1708 52.3216 26.1621 51.9465 25.619C50.9366 24.1432 49.5984 22.8942 48.051 22.0042C42.7445 18.9256 35.6236 20.756 33.4228 26.7529C32.5872 29.0274 32.7117 31.4225 33.4653 33.6348C33.5863 33.9989 33.9394 34.2401 34.3247 34.2444L37.6826 34.2852L40.095 34.3074L44.2896 34.3578C45.9186 34.3801 47.2305 35.7126 47.2082 37.3415L47.1618 41.3934C47.1573 41.9002 47.5646 42.3278 48.082 42.3342L57.1761 42.4427C57.6828 42.4472 58.1104 42.04 58.1169 41.5226L58.1633 37.4706C58.1855 35.8417 59.518 34.5297 61.1469 34.552L67.7539 34.6246L67.7666 34.6159Z" fill="white"/>
<path d="M73.3141 79.6673L74.9324 79.6876C75.3284 79.6938 75.6531 79.3671 75.6593 78.971C75.6656 78.5749 75.3388 78.2503 74.9428 78.244L73.3245 78.2237C73.3245 78.2237 73.2565 78.2334 73.2245 78.2275C73.2072 78.0809 73.1773 77.943 73.1493 77.7944C73.1833 77.7896 73.2066 77.7829 73.2425 77.7674L74.744 77.1595C75.1121 77.0172 75.2903 76.5864 75.146 76.2289C75.0038 75.8609 74.5729 75.6827 74.2155 75.8269L72.714 76.4349C72.714 76.4349 72.6528 76.4678 72.6275 76.4852C72.5617 76.3628 72.4832 76.2492 72.394 76.1336C72.4193 76.1161 72.4445 76.0987 72.4717 76.0705L73.6283 74.9361C73.9111 74.6568 73.9165 74.2054 73.6372 73.9226C73.3579 73.6398 72.9065 73.6344 72.6237 73.9137L71.4672 75.0481C71.4672 75.0481 71.4254 75.0956 71.4088 75.1257C71.2925 75.0382 71.1741 74.9614 71.0451 74.8826C71.0616 74.8525 71.0762 74.8331 71.0928 74.8031L71.7303 73.3088C71.8861 72.9401 71.7089 72.5215 71.3509 72.3677C70.9928 72.2139 70.5635 72.3891 70.4098 72.7471L69.7722 74.2414C69.7722 74.2414 69.7604 74.3055 69.7439 74.3355C69.6051 74.3101 69.4683 74.2741 69.3275 74.2593C69.3334 74.2273 69.3393 74.1953 69.3451 74.1633L69.3654 72.545C69.3717 72.1489 69.0449 71.8243 68.6489 71.818C68.2528 71.8117 67.9282 72.1385 67.9219 72.5346L67.9016 74.1528C67.9016 74.1528 67.9112 74.2208 67.9054 74.2528C67.7587 74.2702 67.6209 74.3001 67.4723 74.3281C67.4675 74.2941 67.4607 74.2708 67.4452 74.2348L66.8373 72.7333C66.695 72.3652 66.2642 72.1871 65.9068 72.3313C65.5387 72.4736 65.3606 72.9044 65.5048 73.2618L66.1127 74.7633C66.1127 74.7633 66.1457 74.8245 66.1631 74.8498C66.0407 74.9157 65.927 74.9942 65.8114 75.0834C65.794 75.0581 65.7765 75.0328 65.7484 75.0056L64.6139 73.8491C64.3347 73.5663 63.8833 73.5609 63.6004 73.8402C63.3176 74.1194 63.3123 74.5708 63.5915 74.8536L64.726 76.0102C64.726 76.0102 64.7735 76.052 64.8036 76.0685C64.7161 76.1849 64.6392 76.3032 64.5605 76.4323C64.5304 76.4157 64.511 76.4011 64.4809 76.3846L62.9867 75.747C62.6179 75.5913 62.1993 75.7684 62.0455 76.1265C61.8898 76.4952 62.067 76.9138 62.425 77.0676L63.9193 77.7052C63.9193 77.7052 63.9833 77.7169 64.0134 77.7334C63.988 77.8722 63.9519 78.0091 63.9372 78.1498C63.9052 78.144 63.8731 78.1381 63.8411 78.1322L62.2228 78.1119C61.8268 78.1056 61.5022 78.4324 61.4959 78.8285C61.4896 79.2246 61.8164 79.5492 62.2124 79.5555L63.8307 79.5758C63.8307 79.5758 63.8987 79.5661 63.9307 79.572C63.948 79.7186 63.9779 79.8565 64.0059 80.0051C63.9719 80.0099 63.9486 80.0166 63.9127 80.0321L62.4112 80.64C62.0431 80.7823 61.8649 81.2131 62.0092 81.5706C62.1515 81.9386 62.5823 82.1168 62.9397 81.9726L64.4412 81.3646C64.4412 81.3646 64.5024 81.3317 64.5277 81.3143C64.5935 81.4367 64.672 81.5503 64.7612 81.6659C64.736 81.6834 64.7107 81.7008 64.6835 81.729L63.5269 82.8634C63.2441 83.1427 63.2388 83.5941 63.518 83.8769C63.7973 84.1597 64.2487 84.1651 64.5315 83.8858L65.688 82.7514C65.688 82.7514 65.7298 82.7038 65.7464 82.6738C65.8628 82.7613 65.9811 82.8381 66.1101 82.9169C66.0936 82.947 66.079 82.9664 66.0625 82.9964L65.4249 84.4907C65.2691 84.8594 65.4463 85.278 65.8043 85.4318C66.1731 85.5876 66.5917 85.4104 66.7455 85.0524L67.383 83.5581C67.383 83.5581 67.3948 83.494 67.4113 83.464C67.5501 83.4894 67.6869 83.5254 67.8277 83.5402C67.8218 83.5722 67.816 83.6042 67.8101 83.6362L67.7898 85.2545C67.7835 85.6506 68.1103 85.9752 68.5063 85.9815C68.9024 85.9878 69.227 85.661 69.2333 85.2649L69.2536 83.6467C69.2536 83.6467 69.244 83.5787 69.2499 83.5467C69.3965 83.5293 69.5343 83.4994 69.6829 83.4714C69.6877 83.5054 69.6945 83.5287 69.71 83.5647L70.3179 85.0662C70.4602 85.4343 70.891 85.6124 71.2484 85.4682C71.6165 85.3259 71.7946 84.8951 71.6504 84.5377L71.0425 83.0361C71.0425 83.0361 71.0096 82.9749 70.9921 82.9497C71.1145 82.8838 71.2282 82.8053 71.3438 82.7161C71.3613 82.7414 71.3787 82.7667 71.4068 82.7939L72.5413 83.9504C72.8206 84.2332 73.272 84.2386 73.5548 83.9593C73.8376 83.6801 73.843 83.2287 73.5637 82.9459L72.4292 81.7893C72.4292 81.7893 72.3817 81.7475 72.3516 81.731C72.4391 81.6146 72.516 81.4963 72.5947 81.3672C72.6248 81.3838 72.6442 81.3984 72.6743 81.4149L74.1686 82.0525C74.5373 82.2082 74.9559 82.0311 75.1097 81.673C75.2654 81.3043 75.0883 80.8857 74.7302 80.7319L73.236 80.0943C73.236 80.0943 73.1719 80.0826 73.1418 80.0661C73.1672 79.9273 73.2033 79.7904 73.218 79.6497C73.25 79.6555 73.2821 79.6614 73.3141 79.6673Z" fill="#FF9815"/>
<path d="M42.1088 74.0741L7.79198 73.6783L7.73978 78.2039L42.0566 78.5997L42.1088 74.0741Z" fill="#A8A8A8"/>
<path d="M54.1726 81.3043L7.71149 80.7684L7.65929 85.2941L54.1204 85.8299L54.1726 81.3043Z" fill="#A8A8A8"/>
</svg>
