<svg width="48" height="48" viewBox="0 0 48 48" fill="none" xmlns="http://www.w3.org/2000/svg">
<path d="M20.4336 21.7532H22.3732C22.8434 21.7532 23.2353 21.3447 23.2353 20.8545C23.2353 20.3643 22.8434 19.9557 22.3732 19.9557H20.4336C20.4336 19.9557 20.3553 19.9557 20.3161 19.966C20.2867 19.7821 20.2573 19.6085 20.2181 19.4349C20.2573 19.4247 20.2965 19.4145 20.3259 19.4043L22.1185 18.6281C22.5593 18.434 22.7651 17.9132 22.5789 17.4536C22.3928 16.994 21.8932 16.7796 21.4524 16.9736L19.6598 17.7498C19.6598 17.7498 19.5912 17.7906 19.5618 17.8111C19.4736 17.6579 19.3855 17.5149 19.2777 17.3719C19.3071 17.3515 19.3365 17.3209 19.3659 17.3004L20.7373 15.8706C21.0704 15.5234 21.0704 14.9515 20.7373 14.6043C20.4042 14.257 19.8557 14.257 19.5226 14.6043L18.1512 16.034C18.1512 16.034 18.1022 16.0953 18.0826 16.126C17.9455 16.0136 17.7985 15.9217 17.6516 15.8196C17.6712 15.7889 17.6908 15.7481 17.7104 15.7174L18.4451 13.8485C18.6214 13.3889 18.4157 12.8681 17.9749 12.674C17.534 12.48 17.0345 12.7047 16.8483 13.1643L16.1136 15.0332C16.1136 15.0332 16.094 15.1149 16.0842 15.1455C15.9177 15.1047 15.761 15.074 15.5945 15.0434C15.5945 15.0026 15.6042 14.9617 15.6042 14.9209V12.8987C15.6042 12.4085 15.2124 12 14.7422 12C14.272 12 13.8802 12.4085 13.8802 12.8987V14.9209C13.8802 14.9209 13.8802 15.0026 13.89 15.0434C13.7136 15.074 13.5471 15.1047 13.3806 15.1455C13.3708 15.1047 13.361 15.0638 13.3512 15.0332L12.6067 13.1643C12.4206 12.7047 11.921 12.4902 11.4802 12.6843C11.0393 12.8783 10.8336 13.3991 11.0198 13.8587L11.7642 15.7277C11.7642 15.7277 11.8034 15.7991 11.823 15.8298C11.6761 15.9217 11.5389 16.0136 11.4018 16.126C11.3822 16.0953 11.3528 16.0647 11.3332 16.034L9.9618 14.6043C9.62874 14.257 9.08017 14.257 8.7471 14.6043C8.41404 14.9515 8.41404 15.5234 8.7471 15.8706L10.1185 17.3004C10.1185 17.3004 10.1773 17.3515 10.2067 17.3719C10.0989 17.5149 10.0108 17.6681 9.91282 17.8213C9.88343 17.8009 9.84425 17.7804 9.81486 17.76L8.02221 16.994C7.58139 16.8102 7.0818 17.0247 6.89568 17.4843C6.71935 17.9438 6.92506 18.4647 7.36588 18.6587L9.15853 19.4247C9.15853 19.4247 9.2369 19.4451 9.26629 19.4553C9.22711 19.6289 9.19772 19.7923 9.16833 19.966C9.12914 19.966 9.08996 19.9557 9.05078 19.9557H7.11119C6.64098 19.9557 6.24915 20.3643 6.24915 20.8545C6.24915 21.3447 6.64098 21.7532 7.11119 21.7532H9.05078C9.05078 21.7532 9.12914 21.7532 9.16833 21.743C9.19772 21.9268 9.22711 22.1004 9.26629 22.274C9.22711 22.2843 9.18792 22.2945 9.15853 22.3047L7.36588 23.0809C6.92506 23.2749 6.71935 23.7957 6.90547 24.2553C7.0916 24.7149 7.59119 24.9294 8.032 24.7353L9.82466 23.9591C9.82466 23.9591 9.89323 23.9183 9.92261 23.8979C10.0108 24.0511 10.0989 24.194 10.2067 24.337C10.1773 24.3574 10.1479 24.3881 10.1185 24.4085L8.7471 25.8383C8.41404 26.1855 8.41404 26.7574 8.7471 27.1047C9.08017 27.4519 9.62874 27.4519 9.9618 27.1047L11.3332 25.6749C11.3332 25.6749 11.3822 25.6136 11.4018 25.583C11.5389 25.6953 11.6859 25.7872 11.8328 25.8894C11.8132 25.92 11.7936 25.9609 11.774 25.9915L11.0393 27.8604C10.863 28.32 11.0687 28.8409 11.5096 29.0349C11.9504 29.2187 12.45 29.0043 12.6361 28.5447L13.3708 26.6757C13.3708 26.6757 13.3904 26.594 13.4002 26.5634C13.5667 26.6043 13.7234 26.6349 13.89 26.6655C13.89 26.7064 13.8802 26.7472 13.8802 26.7881V28.8102C13.8802 29.3004 14.272 29.7089 14.7422 29.7089C15.2124 29.7089 15.6042 29.3004 15.6042 28.8102V26.7881C15.6042 26.7881 15.6042 26.7064 15.5945 26.6655C15.7708 26.6349 15.9373 26.6043 16.1038 26.5634C16.1136 26.6043 16.1234 26.6451 16.1332 26.6757L16.8777 28.5447C17.0638 29.0043 17.5634 29.2187 18.0043 29.0247C18.4451 28.8306 18.6508 28.3098 18.4647 27.8502L17.7202 25.9813C17.7202 25.9813 17.681 25.9098 17.6614 25.8791C17.8083 25.7872 17.9455 25.6953 18.0826 25.583C18.1022 25.6136 18.1316 25.6443 18.1512 25.6749L19.5226 27.1047C19.8557 27.4519 20.4042 27.4519 20.7373 27.1047C21.0704 26.7574 21.0704 26.1855 20.7373 25.8383L19.3659 24.4085C19.3659 24.4085 19.3071 24.3574 19.2777 24.337C19.3855 24.194 19.4736 24.0409 19.5716 23.8877C19.601 23.9081 19.6402 23.9285 19.6696 23.9489L21.4622 24.7149C21.903 24.8987 22.4026 24.6843 22.5887 24.2247C22.7651 23.7651 22.5593 23.2443 22.1185 23.0502L20.3259 22.2843C20.3259 22.2843 20.2475 22.2638 20.2181 22.2536C20.2573 22.08 20.2867 21.9166 20.3161 21.743C20.3553 21.743 20.3945 21.7532 20.4336 21.7532Z" fill="#FF9815"/>
<path d="M15.8589 36.0613H37.8507C40.5152 35.8366 42.4646 33.6 42.5332 30.9345C42.6017 28.269 40.6719 25.8588 38.0173 25.5422C37.9781 22.3762 35.8034 19.8128 32.9919 19.2307C29.9846 18.6179 26.9968 20.3132 25.8899 23.4077C22.5103 22.2434 18.9152 24.0817 17.8377 27.6766C15.3789 26.7268 12.8515 28.2179 12.2736 30.6996C11.6956 33.1813 13.2532 35.7141 15.8687 36.0613H15.8589Z" fill="#BDEEFF"/>
<path d="M42.5332 30.9245C42.4647 33.59 40.5153 35.8266 37.8508 36.0615H15.859C14.0173 35.8062 12.6949 34.4785 12.2834 32.8342C12.2834 32.8342 13.5765 29.6581 16.0647 30.1789C17.632 30.5057 18.5235 31.864 18.5235 31.864C18.5235 31.864 19.2483 30.6793 18.2394 29.2291C18.2394 29.2291 20.2181 29.321 21.2467 31.5372C21.2467 31.5372 22.3634 29.2802 24.3912 29.5764C26.419 29.8725 26.8304 31.5372 26.8304 31.5372C26.8304 31.5372 26.8304 28.2998 23.6271 27.8913C23.6271 27.8913 24.9594 24.4904 28.1724 26.0325C29.4851 26.6657 29.4459 28.6164 29.4459 28.6164C29.4459 28.6164 30.2002 28.3202 30.4157 29.0351C30.4157 29.0351 32.1692 26.533 34.8532 28.9023C34.8532 28.9023 34.383 25.9202 31.699 24.8785C31.699 24.8785 35.872 23.7857 36.9398 28.6164C36.9398 28.6164 38.9773 25.8998 41.7496 27.973C42.2688 28.8308 42.5528 29.8419 42.5235 30.9142L42.5332 30.9245Z" fill="#8EC7ED"/>
</svg>
