<svg width="48" height="48" viewBox="0 0 48 48" fill="none" xmlns="http://www.w3.org/2000/svg">
<path d="M8.16607 34.5637H38.6661C42.3561 34.2637 45.0661 31.2937 45.1661 27.7337C45.2661 24.0937 42.5861 20.9737 38.8961 20.5537C38.8461 16.3337 35.8261 12.9237 31.9161 12.1637C27.7461 11.3537 23.5961 13.6037 22.0661 17.7237C17.3761 16.1737 12.3861 18.6237 10.8861 23.4037C7.47607 22.1437 3.96607 24.1137 3.16607 27.4237C2.36607 30.7437 4.52608 34.0937 8.14608 34.5637H8.16607Z" fill="#BDEEFF"/>
<path d="M45.166 27.7439C45.076 31.2939 42.3661 34.2639 38.6761 34.5739H8.16605C5.60605 34.2339 3.77605 32.4639 3.20605 30.2839C3.20605 30.2839 4.99605 26.0539 8.45605 26.7439C10.6261 27.1839 11.866 28.9839 11.866 28.9839C11.866 28.9839 12.876 27.4039 11.476 25.4839C11.476 25.4839 14.2261 25.6039 15.6461 28.5539C15.6461 28.5539 17.196 25.5539 20.006 25.9439C22.816 26.3339 23.3961 28.5539 23.3961 28.5539C23.3961 28.5539 23.396 24.2439 18.946 23.7039C18.946 23.7039 20.796 19.1739 25.246 21.2339C27.066 22.0739 27.0161 24.6739 27.0161 24.6739C27.0161 24.6739 28.056 24.2839 28.366 25.2339C28.366 25.2339 30.796 21.9039 34.526 25.0639C34.526 25.0639 33.8761 21.0939 30.1561 19.7039C30.1561 19.7039 35.9461 18.2539 37.4261 24.6739C37.4261 24.6739 40.2561 21.0639 44.0961 23.8239C44.8161 24.9639 45.206 26.3139 45.166 27.7439Z" fill="#8EC7ED"/>
<path d="M9.45606 41.444C9.32606 41.444 9.19605 41.394 9.10605 41.294C8.90605 41.094 8.90605 40.784 9.10605 40.584L13.9161 35.774C14.1161 35.574 14.4261 35.574 14.6261 35.774C14.8261 35.974 14.8261 36.284 14.6261 36.484L9.81606 41.294C9.71606 41.394 9.58606 41.444 9.46606 41.444H9.45606Z" fill="#8EC7ED"/>
<path d="M14.3461 41.444C14.2161 41.444 14.0861 41.394 13.9961 41.294C13.7961 41.094 13.7961 40.784 13.9961 40.584L18.8061 35.774C19.0061 35.574 19.3161 35.574 19.5161 35.774C19.7161 35.974 19.7161 36.284 19.5161 36.484L14.7061 41.294C14.6061 41.394 14.4761 41.444 14.3561 41.444H14.3461Z" fill="#8EC7ED"/>
<path d="M19.2461 41.444C19.1161 41.444 18.9861 41.394 18.8961 41.294C18.6961 41.094 18.6961 40.784 18.8961 40.584L23.7061 35.774C23.9061 35.574 24.2161 35.574 24.4161 35.774C24.6161 35.974 24.6161 36.284 24.4161 36.484L19.6061 41.294C19.5061 41.394 19.3761 41.444 19.2561 41.444H19.2461Z" fill="#8EC7ED"/>
<path d="M24.1361 41.444C24.0061 41.444 23.8761 41.394 23.7861 41.294C23.5861 41.094 23.5861 40.784 23.7861 40.584L28.5961 35.774C28.7961 35.574 29.1061 35.574 29.3061 35.774C29.5061 35.974 29.5061 36.284 29.3061 36.484L24.4961 41.294C24.3961 41.394 24.2661 41.444 24.1461 41.444H24.1361Z" fill="#8EC7ED"/>
<path d="M29.0261 41.444C28.8961 41.444 28.7661 41.394 28.6761 41.294C28.4761 41.094 28.4761 40.784 28.6761 40.584L33.4861 35.774C33.6861 35.574 33.9961 35.574 34.1961 35.774C34.3961 35.974 34.3961 36.284 34.1961 36.484L29.3861 41.294C29.2861 41.394 29.1561 41.444 29.0361 41.444H29.0261Z" fill="#8EC7ED"/>
</svg>
