<svg width="58" height="47" viewBox="0 0 58 47" fill="none" xmlns="http://www.w3.org/2000/svg">
<path d="M41.0449 16.5352H44.4696C45.2998 16.5352 45.9916 15.8433 45.9916 15.0131C45.9916 14.1829 45.2998 13.491 44.4696 13.491H41.0449C41.0449 13.491 40.9065 13.491 40.8374 13.5083C40.7855 13.197 40.7336 12.903 40.6644 12.6089C40.7336 12.5916 40.8028 12.5743 40.8547 12.557L44.0198 11.2425C44.7982 10.9139 45.1614 10.0318 44.8328 9.25347C44.5041 8.47514 43.622 8.11192 42.8437 8.44055L39.6785 9.75506C39.6785 9.75506 39.5574 9.82424 39.5055 9.85884C39.3499 9.59939 39.1942 9.35725 39.0039 9.1151C39.0558 9.08051 39.1077 9.02862 39.1596 8.99403L41.5811 6.57256C42.1692 5.98449 42.1692 5.0159 41.5811 4.42783C40.993 3.83976 40.0244 3.83976 39.4363 4.42783L37.0149 6.8493C37.0149 6.8493 36.9284 6.95307 36.8938 7.00496C36.6517 6.8147 36.3922 6.65904 36.1328 6.48608C36.1674 6.43419 36.202 6.365 36.2366 6.31311L37.5338 3.14791C37.8451 2.36958 37.4819 1.48747 36.7036 1.15885C35.9252 0.830218 35.0431 1.21073 34.7145 1.98906L33.4173 5.15427C33.4173 5.15427 33.3827 5.29264 33.3654 5.34453C33.0714 5.27534 32.7946 5.22345 32.5006 5.17157C32.5006 5.10238 32.5179 5.0332 32.5179 4.96401V1.52207C32.5179 0.691848 31.826 0 30.9958 0C30.1656 0 29.4737 0.691848 29.4737 1.52207V4.94671C29.4737 4.94671 29.4737 5.08508 29.491 5.15427C29.1797 5.20616 28.8857 5.25805 28.5916 5.32723C28.5743 5.25805 28.557 5.18886 28.5397 5.13697L27.2252 1.97177C26.8966 1.19344 26.0145 0.830218 25.2362 1.15885C24.4578 1.48747 24.0946 2.36958 24.4233 3.14791L25.7378 6.31311C25.7378 6.31311 25.807 6.43419 25.8415 6.48608C25.5821 6.64174 25.34 6.79741 25.0978 6.98767C25.0632 6.93578 25.0113 6.88389 24.9767 6.832L22.5553 4.41053C21.9672 3.82246 20.9986 3.82246 20.4105 4.41053C19.8225 4.9986 19.8225 5.96719 20.4105 6.55526L22.832 8.97673C22.832 8.97673 22.9358 9.06321 22.9877 9.0978C22.7974 9.33995 22.6417 9.59939 22.4688 9.85884C22.4169 9.82424 22.3477 9.78965 22.2958 9.75506L19.1306 8.45784C18.3523 8.14651 17.4702 8.50973 17.1415 9.28806C16.8302 10.0664 17.1934 10.9485 17.9718 11.2771L21.137 12.5743C21.137 12.5743 21.2753 12.6089 21.3272 12.6262C21.258 12.9203 21.2062 13.197 21.1543 13.491C21.0851 13.491 21.0159 13.4737 20.9467 13.4737H17.5221C16.6918 13.4737 16 14.1656 16 14.9958C16 15.826 16.6918 16.5179 17.5221 16.5179H20.9467C20.9467 16.5179 21.0851 16.5179 21.1543 16.5006C21.2062 16.8119 21.258 17.1059 21.3272 17.4C21.258 17.4173 21.1889 17.4346 21.137 17.4519L17.9718 18.7664C17.1934 19.095 16.8302 19.9771 17.1588 20.7554C17.4875 21.5338 18.3696 21.897 19.1479 21.5684L22.3131 20.2539C22.3131 20.2539 22.4342 20.1847 22.4861 20.1501C22.6417 20.4095 22.7974 20.6517 22.9877 20.8938C22.9358 20.9284 22.8839 20.9803 22.832 21.0149L20.4105 23.4364C19.8225 24.0244 19.8225 24.993 20.4105 25.5811C20.9986 26.1692 21.9672 26.1692 22.5553 25.5811L24.9767 23.1596C24.9767 23.1596 25.0632 23.0558 25.0978 23.004C25.34 23.1942 25.5994 23.3499 25.8588 23.5228C25.8242 23.5747 25.7897 23.6439 25.7551 23.6958L24.4578 26.861C24.1465 27.6393 24.5097 28.5214 25.2881 28.8501C26.0664 29.1614 26.9485 28.7982 27.2771 28.0199L28.5743 24.8546C28.5743 24.8546 28.6089 24.7163 28.6262 24.6644C28.9203 24.7336 29.197 24.7855 29.491 24.8373C29.491 24.9065 29.4737 24.9757 29.4737 25.0449V28.4696C29.4737 29.2998 30.1656 29.9916 30.9958 29.9916C31.826 29.9916 32.5179 29.2998 32.5179 28.4696V25.0449C32.5179 25.0449 32.5179 24.9065 32.5006 24.8373C32.8119 24.7855 33.1059 24.7336 33.4 24.6644C33.4173 24.7336 33.4346 24.8028 33.4519 24.8546L34.7664 28.0199C35.095 28.7982 35.9771 29.1614 36.7554 28.8328C37.5338 28.5041 37.897 27.622 37.5684 26.8437L36.2539 23.6785C36.2539 23.6785 36.1847 23.5574 36.1501 23.5055C36.4095 23.3499 36.6517 23.1942 36.8938 23.004C36.9284 23.0558 36.9803 23.1077 37.0149 23.1596L39.4363 25.5811C40.0244 26.1692 40.993 26.1692 41.5811 25.5811C42.1692 24.993 42.1692 24.0244 41.5811 23.4364L39.1596 21.0149C39.1596 21.0149 39.0558 20.9284 39.0039 20.8938C39.1942 20.6517 39.3499 20.3922 39.5228 20.1328C39.5747 20.1674 39.6439 20.202 39.6958 20.2366L42.861 21.5338C43.6393 21.8451 44.5214 21.4819 44.8501 20.7036C45.1614 19.9252 44.7982 19.0431 44.0198 18.7145L40.8547 17.4173C40.8547 17.4173 40.7163 17.3827 40.6644 17.3654C40.7336 17.0714 40.7855 16.7946 40.8374 16.5006C40.9065 16.5006 40.9757 16.5179 41.0449 16.5179V16.5352Z" fill="#FF9815"/>
<path d="M8.93534 46.6531H61.6888C68.0711 46.1342 72.7583 40.9972 72.9313 34.8398C73.1043 28.5439 68.4689 23.1475 62.0866 22.4211C62.0001 15.1221 56.7766 9.22408 50.0138 7.90957C42.8013 6.50858 35.6234 10.4002 32.9771 17.5263C24.8651 14.8453 16.2343 19.0829 13.6399 27.3505C7.7419 25.1712 1.67093 28.5785 0.287235 34.3036C-1.09646 40.0459 2.63951 45.8401 8.90074 46.6531H8.93534Z" fill="#DCF6FF"/>
<path d="M72.9313 34.857C72.7756 40.9971 68.0883 46.1341 61.706 46.6703H8.9353C4.50747 46.0822 1.34227 43.0208 0.356384 39.2502C0.356384 39.2502 3.4524 31.9339 9.43689 33.1274C13.1902 33.8884 15.3349 37.0017 15.3349 37.0017C15.3349 37.0017 17.0818 34.2689 14.6603 30.948C14.6603 30.948 19.4168 31.1556 21.8729 36.258C21.8729 36.258 24.5538 31.0691 29.414 31.7437C34.2742 32.4182 35.2774 36.258 35.2774 36.258C35.2774 36.258 35.2774 28.8033 27.5806 27.8693C27.5806 27.8693 30.7804 20.0341 38.4772 23.5971C41.6251 25.05 41.5386 29.547 41.5386 29.547C41.5386 29.547 43.3374 28.8725 43.8736 30.5156C43.8736 30.5156 48.0766 24.756 54.5281 30.2216C54.5281 30.2216 53.4039 23.355 46.9697 20.9508C46.9697 20.9508 56.9841 18.4429 59.544 29.547C59.544 29.547 64.4388 23.3031 71.0806 28.0769C72.3259 30.0486 73.0005 32.3836 72.9313 34.857Z" fill="#ADDDFC"/>
</svg>
