<svg width="118" height="82" viewBox="0 0 118 82" fill="none" xmlns="http://www.w3.org/2000/svg">
<g clip-path="url(#clip0_936_652)">
<path d="M17.0321 56.2892C17.0321 56.2892 -1.70891 58.3875 0.11392 45.0985C1.93675 31.8095 23.7538 1.23089 51.7799 6.43458C63.1441 8.56081 63.1441 19.1081 63.1441 19.1081C63.1441 19.1081 75.7615 -2.93765 98.2052 3.10534C107.319 5.56729 113.272 12.5055 114.468 21.6819C115.75 31.3619 111.307 43.0842 104.841 50.4141C99.6577 56.2613 91.9961 59.0589 84.5909 58.5274C85.4168 58.5833 80.6034 70.3616 79.692 71.7045C76.6729 76.1248 71.4323 81.2445 65.7929 81.2445C50.4127 81.2445 58.2452 65.3257 62.546 58.6673L37.6244 58.0518C37.6244 58.0518 34.2351 79.51 17.6302 79.51C12.2472 79.51 2.87665 78.8945 17.0036 56.2613L17.0321 56.2892Z" fill="#2BCE5C"/>
<path d="M12.5035 64.3741C13.4719 62.1919 14.7535 59.7859 16.3485 57.1281H16.2061C12.9592 57.1281 8.8863 56.6805 5.66786 54.918C10.6237 57.0162 17.0606 56.2888 17.0606 56.2888C15.1238 59.3663 13.6428 62.0521 12.5035 64.3741Z" fill="#0F9136"/>
<path d="M59.6693 63.8153C60.4099 62.1367 61.2643 60.598 61.9764 59.367L40.7005 58.8355C39.6466 63.5356 34.7763 80.2657 19.5385 80.2657C17.8581 80.2657 15.1238 80.2657 13.0162 79.0067C14.4972 79.4823 16.2346 79.5383 17.6587 79.5383C34.2636 79.5383 37.6529 58.0801 37.6529 58.0801L62.5745 58.6956C61.6915 60.0664 60.6377 61.8569 59.6693 63.8153Z" fill="#0F9136"/>
<path d="M107.832 50.666C102.962 56.1774 95.8127 59.3108 88.2365 59.3108H87.7523C86.8124 63.4514 82.825 71.7325 82.768 71.8164C81.1446 74.2225 75.2204 82 67.7012 82C64.9669 82 62.7169 81.5244 61.0364 80.5452C62.2896 81.0208 63.8561 81.2726 65.7929 81.2726C71.4323 81.2726 76.6729 76.1529 79.692 71.7325C80.6034 70.3896 85.4453 58.5834 84.6194 58.5275C92.0246 59.059 99.6862 56.2613 104.87 50.4142C111.335 43.0843 115.778 31.362 114.497 21.682C113.301 12.5336 107.348 5.56738 98.2336 3.10542C75.79 -2.90959 63.1726 19.1361 63.1726 19.1361C63.1726 19.1361 63.1726 8.5609 51.8083 6.43466C28.083 2.04231 8.82935 23.2487 2.36398 37.9365C8.00337 23.6124 25.6336 3.77687 47.3082 3.77687C49.5013 3.77687 51.7514 3.97271 53.9445 4.39236C61.8339 5.84715 64.7676 11.1068 65.8499 14.7438C69.6379 9.67997 78.6951 0 92.4518 0C95.0722 0 97.7779 0.363698 100.484 1.0911C110.054 3.66496 116.519 11.0508 117.801 20.8427C119.054 30.3548 114.952 42.6087 107.832 50.666Z" fill="#0F9136"/>
<path d="M29.5356 41.8251H45.3145C45.3145 41.8251 52.6343 26.9974 43.3777 25.9063C34.1212 24.8152 29.5641 38.5518 29.5641 41.8251H29.5356Z" fill="white"/>
<path d="M39.2764 30.7744C36.3712 30.7744 33.3522 33.0965 32.5547 35.9501C32.4977 36.118 31.0736 41.1258 31.0736 41.1258H41.6119L43.0929 35.9501C43.9189 33.0965 42.21 30.7744 39.3049 30.7744H39.2764Z" fill="black"/>
<path d="M43.036 34.0473C39.903 33.6277 37.8238 37.0408 41.4695 37.7682C43.4347 38.2718 46.9095 35.4182 43.8904 34.1872L43.0644 34.0194L43.036 34.0473Z" fill="white"/>
<path d="M27.8552 41.9933C27.8552 41.9933 30.9597 39.7832 36.9693 40.1469C42.979 40.5106 43.2923 41.8255 43.2923 41.8255L27.8837 41.9654L27.8552 41.9933Z" fill="black"/>
<path d="M66.3056 42.8602H82.0845C82.0845 42.8602 89.4043 28.0325 80.1477 26.9414C70.8911 25.8503 66.3341 39.5869 66.3341 42.8602H66.3056Z" fill="white"/>
<path d="M75.7045 31.7812C72.7994 31.7812 69.7803 34.1033 68.9828 36.957C68.9259 37.1248 67.5018 42.1327 67.5018 42.1327H78.0401L79.5211 36.957C80.3471 34.1033 78.6382 31.7812 75.733 31.7812H75.7045Z" fill="black"/>
<path d="M80.4325 35.0825C77.2995 34.6628 75.2204 38.076 78.866 38.8034C80.8313 39.307 84.3061 36.4534 81.287 35.2224L80.461 35.0545L80.4325 35.0825Z" fill="white"/>
<path d="M64.2834 42.9441C64.2834 42.9441 67.3879 40.7339 73.3975 41.1536C79.4072 41.5732 79.692 42.8602 79.692 42.8602L64.2834 42.9441Z" fill="black"/>
<path d="M42.2954 48.54C42.2954 48.54 43.2353 53.5759 50.9539 52.5407C58.1313 51.5615 61.5206 49.1555 61.5206 49.1555" stroke="black" stroke-width="3" stroke-linejoin="round"/>
</g>
<defs>
<clipPath id="clip0_936_652">
<rect width="118" height="82" fill="white"/>
</clipPath>
</defs>
</svg>
