<svg width="143" height="108" viewBox="0 0 143 108" fill="none" xmlns="http://www.w3.org/2000/svg">
<g filter="url(#filter0_d_816_5202)">
<path d="M79.3862 14.352L13.6898 38.8157C10.2014 40.1147 8.42654 43.9957 9.72555 47.4842L42.912 136.605C44.211 140.093 48.092 141.868 51.5804 140.569L117.277 116.105C120.765 114.806 122.54 110.925 121.241 107.437L88.0546 18.3163C86.7556 14.8279 82.8746 13.053 79.3862 14.352Z" fill="#F2F2F2"/>
<path d="M88.058 18.3217L121.244 107.426C122.546 110.925 120.773 114.806 117.275 116.108L51.5933 140.565C50.3453 141.033 49.0333 141.105 47.8228 140.837C48.3808 140.808 48.9333 140.693 49.491 140.488L116.906 115.383C119.929 114.258 121.459 110.898 120.336 107.885L86.4918 17.0495C86.1502 16.1199 85.6049 15.3394 84.9045 14.7319C86.3251 15.4682 87.4553 16.7125 88.058 18.3217Z" fill="#A8A8A8"/>
<path d="M76.5152 21.8224L20.7461 42.5895C18.3811 43.4701 17.1779 46.1012 18.0585 48.4661L36.0493 96.7797C36.93 99.1447 39.5611 100.348 41.926 99.4673L97.6951 78.7002C100.06 77.8195 101.263 75.1885 100.383 72.8235L82.3919 24.5099C81.5112 22.145 78.8802 20.9417 76.5152 21.8224Z" fill="#FF9815"/>
<path d="M84.2073 53.7241C82.4973 57.472 79.9019 60.8019 77.1353 63.8108C76.905 64.0532 75.6656 65.326 74.2571 66.6971C73.2872 67.6428 71.9666 68.1357 70.6243 68.0473C68.6586 67.9332 66.8848 67.7827 66.5467 67.7473C62.4922 67.2773 58.3392 66.4614 54.6106 64.7367C54.6106 64.7367 54.5873 64.73 54.5853 64.7194C53.6044 64.2643 52.5645 65.1901 52.9329 66.2029L59.8991 84.9226C60.4643 86.4505 62.1698 87.2324 63.6956 86.6565L69.8864 84.3474C71.4143 83.7822 72.1962 82.0767 71.6203 80.5508L70.206 76.7535C70.0278 76.279 70.2676 75.7366 70.7527 75.5564L79.277 72.3861C79.7514 72.2079 80.2938 72.4477 80.474 72.9328L81.8884 76.7302C82.4536 78.2581 84.1591 79.04 85.6849 78.4641L91.8757 76.155C93.4036 75.5898 94.1769 73.897 93.601 72.3711L86.5457 53.4142C86.1627 52.3821 84.7172 52.3905 84.3148 53.4166C84.269 53.5247 84.2318 53.6201 84.1926 53.7048L84.2073 53.7241Z" fill="white"/>
<path d="M81.9876 49.5821L84.9088 48.4991C85.2699 48.3645 85.5247 48.0181 85.5181 47.6327C85.4849 45.2972 84.7977 43.0081 83.2292 41.1399C79.1207 36.2395 71.8058 36.9276 67.8658 41.6166C66.6999 42.986 65.8699 44.6121 65.424 46.3424C65.2577 46.9814 64.5354 47.2506 63.9901 46.8788C62.5169 45.8651 60.819 45.1812 59.055 44.9074C52.9962 43.944 47.0106 48.2136 47.1145 54.6007C47.1532 57.0235 48.1309 59.2135 49.63 61.0065C49.8738 61.3028 50.29 61.4008 50.6512 61.2662L53.7989 60.0962L56.0577 59.2491L59.9897 57.7871C61.5176 57.2219 63.221 57.9932 63.7862 59.521L65.2006 63.3184C65.3788 63.7928 65.9126 64.0453 66.3977 63.8652L74.9219 60.6948C75.3963 60.5167 75.6488 59.9829 75.4687 59.4978L74.0543 55.7004C73.489 54.1725 74.2603 52.4691 75.7882 51.9038L81.979 49.5947L81.9876 49.5821Z" fill="white"/>
<path d="M103.371 89.6214L104.888 89.0581C105.26 88.9215 105.445 88.4998 105.309 88.128C105.172 87.7562 104.75 87.5709 104.379 87.7075L102.861 88.2707C102.861 88.2707 102.802 88.3042 102.77 88.3102C102.701 88.1797 102.623 88.0618 102.544 87.9332C102.574 87.9165 102.593 87.9018 102.621 87.8744L103.803 86.7671C104.095 86.5019 104.107 86.0358 103.843 85.7542C103.578 85.462 103.112 85.4507 102.831 85.7139L101.648 86.8213C101.648 86.8213 101.603 86.874 101.586 86.8994C101.48 86.8089 101.366 86.7311 101.241 86.6553C101.259 86.6299 101.276 86.6045 101.291 86.5685L101.962 85.0939C102.126 84.7316 101.968 84.3085 101.606 84.1451C101.244 83.9817 100.82 84.139 100.657 84.5013L99.9861 85.9759C99.9861 85.9759 99.9642 86.0353 99.9595 86.0693C99.8195 86.0295 99.6814 86.0004 99.5327 85.9734C99.5373 85.9393 99.5439 85.916 99.5485 85.882L99.6059 84.2584C99.6185 83.8583 99.3026 83.5315 98.9132 83.5168C98.5238 83.5021 98.1863 83.82 98.1716 84.2094L98.1143 85.833C98.1143 85.833 98.1264 85.897 98.1218 85.931C97.9832 85.9572 97.8425 85.9728 97.7059 86.0097C97.6998 85.9777 97.6938 85.9457 97.6877 85.9137L97.1245 84.3965C96.9879 84.0247 96.5662 83.8394 96.1944 83.976C95.8226 84.1126 95.6373 84.5343 95.7739 84.9061L96.3371 86.4233C96.3371 86.4233 96.3705 86.4833 96.3766 86.5153C96.246 86.5842 96.1282 86.6617 95.9996 86.7413C95.9829 86.7113 95.9682 86.692 95.9408 86.664L94.8334 85.4817C94.5682 85.1895 94.1022 85.1782 93.8206 85.4414C93.5283 85.7066 93.5171 86.1726 93.7802 86.4542L94.8876 87.6365C94.8876 87.6365 94.9404 87.6818 94.9658 87.699C94.8752 87.8045 94.7974 87.9187 94.7216 88.0435C94.6963 88.0262 94.6709 88.0089 94.6349 87.9936L93.1603 87.3227C92.798 87.1592 92.3749 87.3166 92.2114 87.6789C92.048 88.0412 92.2054 88.4643 92.5677 88.6278L94.0423 89.2987C94.0423 89.2987 94.1017 89.3206 94.1357 89.3252C94.0959 89.4653 94.0668 89.6034 94.0397 89.7521C94.0057 89.7475 93.9823 89.7409 93.9483 89.7363L92.3247 89.6789C91.9247 89.6663 91.5978 89.9822 91.5832 90.3716C91.5705 90.7716 91.8864 91.0985 92.2758 91.1132L93.8994 91.1705C93.8994 91.1705 93.9633 91.1584 93.9974 91.163C94.0236 91.3016 94.0392 91.4423 94.0761 91.5789C94.0441 91.5849 94.0121 91.591 93.9801 91.597L92.4629 92.1603C92.091 92.2969 91.9057 92.7186 92.0424 93.0904C92.179 93.4622 92.6007 93.6475 92.9725 93.5109L94.4897 92.9477C94.4897 92.9477 94.5496 92.9142 94.5816 92.9082C94.6505 93.0388 94.7281 93.1566 94.8076 93.2852C94.7776 93.3019 94.7583 93.3166 94.7304 93.344L93.5481 94.4514C93.2558 94.7165 93.2446 95.1826 93.5077 95.4642C93.7729 95.7565 94.239 95.7677 94.5206 95.5045L95.7029 94.3971C95.7029 94.3971 95.7481 94.3444 95.7654 94.319C95.8709 94.4095 95.985 94.4874 96.1098 94.5632C96.0925 94.5885 96.0753 94.6139 96.06 94.6499L95.389 96.1245C95.2256 96.4868 95.383 96.9099 95.7453 97.0733C96.1076 97.2368 96.5307 97.0794 96.6941 96.7171L97.3651 95.2425C97.3651 95.2425 97.387 95.1831 97.3916 95.1491C97.5317 95.1889 97.6697 95.218 97.8185 95.2451C97.8139 95.2791 97.8072 95.3024 97.8026 95.3364L97.7453 96.96C97.7326 97.3601 98.0485 97.6869 98.4379 97.7016C98.838 97.7143 99.1648 97.3984 99.1795 97.009L99.2368 95.3854C99.2368 95.3854 99.2247 95.3214 99.2293 95.2874C99.368 95.2612 99.5086 95.2456 99.6452 95.2087C99.6513 95.2407 99.6574 95.2727 99.6634 95.3047L100.227 96.8219C100.363 97.1937 100.785 97.3791 101.157 97.2424C101.529 97.1058 101.714 96.6841 101.577 96.3123L101.014 94.7951C101.014 94.7951 100.981 94.7351 100.975 94.7032C101.105 94.6343 101.223 94.5567 101.352 94.4772C101.368 94.5072 101.383 94.5265 101.41 94.5544L102.518 95.7367C102.783 96.029 103.249 96.0402 103.531 95.777C103.823 95.5119 103.834 95.0458 103.571 94.7642L102.464 93.5819C102.464 93.5819 102.411 93.5367 102.385 93.5194C102.476 93.4139 102.554 93.2997 102.63 93.1749C102.655 93.1922 102.68 93.2095 102.716 93.2248L104.191 93.8958C104.553 94.0592 104.976 93.9018 105.14 93.5395C105.303 93.1772 105.146 92.7541 104.783 92.5907L103.309 91.9197C103.309 91.9197 103.249 91.8978 103.215 91.8932C103.255 91.7531 103.284 91.615 103.311 91.4663C103.345 91.4709 103.369 91.4776 103.403 91.4822L105.026 91.5395C105.426 91.5522 105.753 91.2363 105.768 90.8469C105.781 90.4468 105.465 90.12 105.075 90.1053L103.452 90.0479C103.452 90.0479 103.388 90.0601 103.354 90.0554C103.328 89.9168 103.312 89.7762 103.275 89.6395C103.307 89.6335 103.339 89.6274 103.371 89.6214Z" fill="#FF9815"/>
<path d="M72.2428 95.6288L40.0812 107.605L41.6606 111.846L73.8222 99.8703L72.2428 95.6288Z" fill="#A8A8A8"/>
<path d="M86.1001 98.035L42.5568 114.249L44.1362 118.491L87.6795 102.276L86.1001 98.035Z" fill="#A8A8A8"/>
</g>
<g filter="url(#filter1_d_816_5202)">
<path d="M102.873 2.74432L33.9529 15.5684C30.2932 16.2493 27.8785 19.7681 28.5595 23.4277L45.9561 116.922C46.637 120.582 50.1557 122.996 53.8154 122.316L122.736 109.491C126.395 108.81 128.81 105.292 128.129 101.632L110.733 8.1377C110.052 4.47807 106.533 2.06337 102.873 2.74432Z" fill="#F2F2F2"/>
<path d="M110.735 8.14358L128.133 101.622C128.816 105.292 126.403 108.811 122.733 109.494L53.8288 122.314C52.519 122.561 51.2142 122.406 50.0676 121.934C50.6221 122.002 51.1863 121.983 51.7709 121.877L122.494 108.716C125.666 108.127 127.749 105.079 127.161 101.918L109.41 6.62141C109.233 5.64705 108.83 4.78452 108.244 4.06574C109.518 5.03507 110.417 6.45485 110.735 8.14358Z" fill="#A8A8A8"/>
<path d="M98.7627 9.61104L40.2566 20.4973C37.7756 20.9589 36.1386 23.3444 36.6002 25.8254L46.0312 76.51C46.4928 78.991 48.8783 80.6281 51.3593 80.1664L109.865 69.2802C112.346 68.8185 113.983 66.433 113.522 63.952L104.091 13.2674C103.629 10.7864 101.244 9.14939 98.7627 9.61104Z" fill="#00BC4C"/>
<path d="M100.865 42.3597C98.5369 45.7584 95.4084 48.5934 92.1663 51.0827C91.8979 51.282 90.4584 52.3232 88.8354 53.4322C87.7176 54.1974 86.332 54.4563 85.0248 54.1387C83.1079 53.6889 81.3863 53.2362 81.0593 53.1433C77.1456 51.9843 73.1942 50.4676 69.817 48.1286C69.817 48.1286 69.7952 48.118 69.795 48.1072C68.9069 47.4905 67.7235 48.224 67.9125 49.2851L71.5622 68.9226C71.8568 70.5249 73.4027 71.5879 75.0048 71.2825L81.5 70.0703C83.1023 69.7757 84.1653 68.2298 83.8599 66.6277L83.1183 62.6439C83.0242 62.1459 83.3536 61.6527 83.8624 61.5585L92.8043 59.8984C93.3023 59.8043 93.7955 60.1336 93.8897 60.6425L94.6313 64.6262C94.9259 66.2285 96.4718 67.2915 98.0739 66.9861L104.569 65.7739C106.171 65.4793 107.224 63.9444 106.918 62.3423L103.222 42.4558C103.021 41.3732 101.596 41.1333 101.023 42.0751C100.96 42.1738 100.907 42.2614 100.854 42.3381L100.865 42.3597Z" fill="white"/>
<path d="M99.389 37.8981L102.453 37.3326C102.832 37.262 103.142 36.9644 103.202 36.5836C103.57 34.2771 103.286 31.904 102.061 29.7943C98.8548 24.2614 91.5304 23.6837 86.844 27.6268C85.4604 28.7758 84.3635 30.2353 83.6273 31.8634C83.3538 32.4643 82.596 32.6056 82.1226 32.1457C80.8453 30.8942 79.2899 29.929 77.5991 29.3565C71.7956 27.3673 65.166 30.5462 64.172 36.8563C63.7942 39.2499 64.3815 41.5751 65.5506 43.5989C65.74 43.9326 66.1332 44.1006 66.5121 44.03L69.8139 43.4177L72.1846 42.9708L76.3092 42.2055C77.9114 41.9109 79.4571 42.9631 79.7517 44.5653L80.4933 48.5491C80.5874 49.0471 81.0699 49.3874 81.5787 49.2932L90.5207 47.633C91.0186 47.539 91.359 47.0565 91.2648 46.5476L90.5232 42.5639C90.2286 40.9616 91.2808 39.4159 92.883 39.1213L99.3783 37.9091L99.389 37.8981Z" fill="white"/>
<path d="M113.582 81.0135L115.174 80.7191C115.564 80.6483 115.819 80.2647 115.748 79.875C115.677 79.4852 115.293 79.2303 114.904 79.301L113.312 79.5955C113.312 79.5955 113.247 79.6181 113.215 79.6186C113.169 79.4782 113.113 79.3487 113.057 79.2084C113.089 79.1971 113.111 79.1859 113.143 79.1637L114.498 78.2757C114.831 78.0647 114.922 77.6074 114.712 77.2848C114.5 76.9514 114.043 76.8604 113.721 77.0713L112.366 77.9593C112.366 77.9593 112.312 78.0035 112.291 78.0255C112.202 77.9182 112.103 77.822 111.993 77.7259C112.015 77.7039 112.036 77.6818 112.057 77.649L112.972 76.3114C113.195 75.9826 113.112 75.5387 112.783 75.3155C112.455 75.0924 112.011 75.1748 111.788 75.5036L110.873 76.8412C110.873 76.8412 110.842 76.8959 110.831 76.9286C110.7 76.8654 110.569 76.813 110.427 76.7608C110.438 76.7281 110.448 76.7062 110.458 76.6735L110.794 75.0839C110.875 74.6919 110.62 74.3157 110.239 74.2344C109.857 74.1531 109.47 74.4083 109.389 74.7894L109.054 76.3791C109.054 76.3791 109.055 76.4442 109.045 76.4769C108.903 76.479 108.762 76.4702 108.621 76.483C108.621 76.4505 108.62 76.4179 108.62 76.3854L108.325 74.794C108.255 74.4043 107.871 74.1493 107.481 74.2201C107.092 74.2909 106.837 74.6745 106.907 75.0642L107.202 76.6556C107.202 76.6556 107.224 76.7204 107.225 76.7529C107.084 76.7984 106.955 76.8546 106.815 76.9109C106.803 76.8785 106.792 76.8569 106.77 76.8247L105.882 75.4698C105.671 75.1364 105.214 75.0453 104.891 75.2563C104.558 75.4673 104.467 75.9246 104.678 76.2471L105.566 77.602C105.566 77.602 105.61 77.6556 105.632 77.677C105.525 77.7654 105.428 77.8645 105.332 77.9744C105.31 77.953 105.288 77.9316 105.255 77.9104L103.918 76.9963C103.589 76.7731 103.145 76.8555 102.922 77.1844C102.699 77.5133 102.781 77.9571 103.11 78.1803L104.447 79.0944C104.447 79.0944 104.502 79.1262 104.535 79.1366C104.472 79.2677 104.419 79.3988 104.367 79.5406C104.334 79.5302 104.313 79.5197 104.28 79.5093L102.69 79.1742C102.298 79.093 101.922 79.3481 101.841 79.7292C101.76 80.1212 102.015 80.4974 102.396 80.5787L103.985 80.9139C103.985 80.9139 104.051 80.9129 104.083 80.9233C104.085 81.0644 104.076 81.2056 104.089 81.3465C104.057 81.347 104.024 81.3475 103.992 81.3479L102.4 81.6424C102.011 81.7132 101.756 82.0968 101.826 82.4865C101.897 82.8763 102.281 83.1312 102.671 83.0604L104.262 82.766C104.262 82.766 104.327 82.7434 104.359 82.7429C104.405 82.8833 104.461 83.0128 104.517 83.1531C104.485 83.1644 104.463 83.1756 104.431 83.1977L103.076 84.0858C102.743 84.2968 102.652 84.7541 102.863 85.0766C103.074 85.4101 103.531 85.5011 103.853 85.2902L105.208 84.4022C105.208 84.4022 105.262 84.358 105.283 84.336C105.372 84.4433 105.471 84.5395 105.581 84.6356C105.559 84.6576 105.538 84.6796 105.517 84.7125L104.603 86.0501C104.379 86.3789 104.462 86.8228 104.791 87.046C105.12 87.2691 105.563 87.1867 105.787 86.8578L106.701 85.5203C106.701 85.5203 106.732 85.4656 106.743 85.4329C106.874 85.4961 107.005 85.5485 107.147 85.6007C107.137 85.6334 107.126 85.6553 107.116 85.688L106.78 87.2776C106.699 87.6696 106.954 88.0458 107.336 88.1271C107.727 88.2083 108.104 87.9531 108.185 87.5721L108.52 85.9824C108.52 85.9824 108.519 85.9173 108.53 85.8846C108.671 85.8825 108.812 85.8913 108.953 85.8784C108.953 85.911 108.954 85.9436 108.954 85.9761L109.249 87.5675C109.319 87.9572 109.703 88.2122 110.093 88.1414C110.483 88.0706 110.738 87.687 110.667 87.2973L110.372 85.7059C110.372 85.7059 110.35 85.6411 110.349 85.6085C110.49 85.5631 110.619 85.5069 110.759 85.4506C110.771 85.483 110.782 85.5046 110.804 85.5368L111.692 86.8916C111.903 87.2251 112.36 87.3161 112.683 87.1052C113.016 86.8942 113.107 86.4369 112.897 86.1143L112.009 84.7595C112.009 84.7595 111.964 84.7059 111.942 84.6845C112.05 84.5961 112.146 84.497 112.242 84.3871C112.264 84.4085 112.286 84.4299 112.319 84.4511L113.656 85.3652C113.985 85.5884 114.429 85.506 114.652 85.1771C114.875 84.8482 114.793 84.4044 114.464 84.1812L113.127 83.2671C113.127 83.2671 113.072 83.2353 113.039 83.2249C113.102 83.0938 113.155 82.9627 113.207 82.8209C113.24 82.8312 113.262 82.8418 113.294 82.8522L114.884 83.1873C115.276 83.2685 115.652 83.0134 115.733 82.6323C115.815 82.2403 115.559 81.8641 115.178 81.7828L113.589 81.4476C113.589 81.4476 113.524 81.4486 113.491 81.4382C113.489 81.2971 113.498 81.1559 113.485 81.0149C113.517 81.0145 113.55 81.014 113.582 81.0135Z" fill="#FF9815"/>
<path d="M81.885 81.5888L48.1451 87.8668L48.973 92.3164L82.7129 86.0383L81.885 81.5888Z" fill="#A8A8A8"/>
<path d="M95.1236 86.3378L49.4434 94.8375L50.2713 99.2871L95.9515 90.7873L95.1236 86.3378Z" fill="#A8A8A8"/>
</g>
<g filter="url(#filter2_d_816_5202)">
<path d="M131.349 2.2998H61.2456C57.5231 2.2998 54.5055 5.31744 54.5055 9.03988V104.139C54.5055 107.861 57.5231 110.879 61.2456 110.879H131.349C135.071 110.879 138.089 107.861 138.089 104.139V9.03988C138.089 5.31744 135.071 2.2998 131.349 2.2998Z" fill="#F2F2F2"/>
<path d="M138.089 9.03988V104.128C138.089 107.862 135.072 110.879 131.338 110.879H61.2456C59.9106 110.879 58.6624 110.488 57.6205 109.815C58.1523 109.978 58.7167 110.065 59.3028 110.065H131.24C134.464 110.065 137.069 107.449 137.069 104.237V7.30331C137.069 6.31563 136.83 5.39308 136.385 4.57906C137.459 5.7621 138.089 7.32502 138.089 9.03988Z" fill="#A8A8A8"/>
<path d="M126.052 8.29099H66.5421C64.0185 8.29099 61.9727 10.3368 61.9727 12.8603V64.4149C61.9727 66.9385 64.0185 68.9843 66.5421 68.9843H126.052C128.576 68.9843 130.622 66.9385 130.622 64.4149V12.8603C130.622 10.3368 128.576 8.29099 126.052 8.29099Z" fill="#007BBF"/>
<path d="M122.134 40.8843C119.225 43.8039 115.633 46.0181 111.986 47.874C111.693 48.026 110.076 48.7857 108.285 49.578C107.048 50.1207 105.637 50.1207 104.399 49.578C102.598 48.7857 100.991 48.026 100.688 47.874C97.0516 46.0181 93.4482 43.8039 90.5503 40.8843C90.5503 40.8843 90.5394 40.8735 90.5285 40.8626C89.7688 40.092 88.4664 40.6021 88.4664 41.6766V61.6472C88.4664 63.2753 89.7905 64.5994 91.4185 64.5994H98.0284C99.6564 64.5994 100.981 63.2753 100.981 61.6472V57.588C100.981 57.0779 101.393 56.6654 101.903 56.6654H110.998C111.509 56.6654 111.921 57.0779 111.921 57.588V61.6472C111.921 63.2753 113.245 64.5994 114.873 64.5994H121.483C123.111 64.5994 124.424 63.2861 124.424 61.6581V41.4379C124.424 40.3416 123.068 39.8424 122.34 40.6672C122.264 40.7541 122.188 40.8301 122.123 40.8952L122.134 40.8843Z" fill="white"/>
<path d="M124.609 36.2281C125 36.2281 125.347 35.9893 125.477 35.6312C126.259 33.4279 126.411 31.0401 125.607 28.75C123.469 22.7263 116.371 20.816 111.042 23.8333C109.479 24.7125 108.122 25.9389 107.102 27.4042C106.722 27.9468 105.952 27.9468 105.572 27.4042C104.551 25.9389 103.195 24.7016 101.643 23.8333C96.3027 20.816 89.2044 22.7263 87.0663 28.75C86.2522 31.0401 86.4042 33.4279 87.1856 35.6312C87.3159 36.0002 87.6741 36.2281 88.0539 36.2281H98.0284C99.6564 36.2281 100.981 37.5523 100.981 39.1803V43.2396C100.981 43.7497 101.393 44.1621 101.903 44.1621H110.998C111.509 44.1621 111.921 43.7497 111.921 43.2396V39.1803C111.921 37.5523 113.245 36.2281 114.873 36.2281H124.609Z" fill="white"/>
<path d="M127.561 81.2054H129.178C129.569 81.2054 129.895 80.8798 129.895 80.4891C129.895 80.0983 129.569 79.7727 129.178 79.7727H127.561C127.561 79.7727 127.496 79.7727 127.463 79.7727C127.442 79.6316 127.409 79.4797 127.376 79.3494C127.409 79.3494 127.442 79.3386 127.474 79.3169L128.972 78.6982C129.341 78.5463 129.515 78.123 129.363 77.754C129.211 77.3849 128.787 77.2113 128.418 77.3632L126.921 77.9819C126.921 77.9819 126.866 78.0145 126.834 78.0253C126.758 77.9059 126.682 77.7865 126.606 77.678C126.628 77.6563 126.66 77.6454 126.682 77.6129L127.821 76.4732C128.104 76.191 128.104 75.7352 127.821 75.453C127.539 75.1708 127.083 75.1708 126.801 75.453L125.662 76.5926C125.662 76.5926 125.618 76.6469 125.597 76.6686C125.477 76.5818 125.358 76.5058 125.238 76.4298C125.249 76.3973 125.271 76.3756 125.282 76.343L125.9 74.8452C126.052 74.4762 125.879 74.0529 125.51 73.9009C125.141 73.749 124.717 73.9227 124.565 74.2917L123.947 75.7895C123.947 75.7895 123.925 75.8546 123.914 75.8872C123.784 75.8546 123.643 75.8329 123.502 75.8112C123.502 75.7786 123.502 75.7461 123.502 75.7135V74.0963C123.502 73.7056 123.176 73.38 122.785 73.38C122.395 73.38 122.069 73.7056 122.069 74.0963V75.7135C122.069 75.7135 122.069 75.7786 122.069 75.8112C121.928 75.8329 121.776 75.8654 121.646 75.898C121.646 75.8654 121.635 75.8329 121.613 75.8003L120.995 74.3025C120.843 73.9335 120.419 73.7598 120.05 73.9118C119.681 74.0638 119.508 74.487 119.66 74.8561L120.278 76.3539C120.278 76.3539 120.311 76.4081 120.322 76.4407C120.202 76.5167 120.083 76.5926 119.974 76.6686C119.953 76.6469 119.942 76.6143 119.909 76.5926L118.77 75.453C118.487 75.1708 118.032 75.1708 117.749 75.453C117.467 75.7352 117.467 76.191 117.749 76.4732L118.889 77.6129C118.889 77.6129 118.943 77.6563 118.965 77.678C118.878 77.7974 118.802 77.9168 118.726 78.0362C118.694 78.0253 118.672 78.0036 118.639 77.9927L117.142 77.3741C116.773 77.2221 116.349 77.3958 116.197 77.7648C116.045 78.1338 116.219 78.5571 116.588 78.7091L118.086 79.3277C118.086 79.3277 118.151 79.3494 118.184 79.3603C118.151 79.4905 118.129 79.6316 118.108 79.7727C118.075 79.7727 118.042 79.7727 118.01 79.7727H116.393C116.002 79.7727 115.676 80.0983 115.676 80.4891C115.676 80.8798 116.002 81.2054 116.393 81.2054H118.01C118.01 81.2054 118.075 81.2054 118.108 81.2054C118.129 81.3465 118.162 81.4985 118.194 81.6287C118.162 81.6287 118.129 81.6396 118.097 81.6613L116.599 82.2799C116.23 82.4319 116.056 82.8552 116.208 83.2242C116.36 83.5932 116.783 83.7669 117.152 83.6149L118.65 82.9963C118.65 82.9963 118.704 82.9637 118.737 82.9528C118.813 83.0722 118.889 83.1916 118.965 83.3001C118.943 83.3219 118.911 83.3327 118.889 83.3653L117.749 84.5049C117.467 84.7871 117.467 85.243 117.749 85.5251C118.032 85.8073 118.487 85.8073 118.77 85.5251L119.909 84.3855C119.909 84.3855 119.953 84.3312 119.974 84.3095C120.094 84.3964 120.213 84.4723 120.333 84.5483C120.322 84.5809 120.3 84.6026 120.289 84.6351L119.67 86.1329C119.518 86.502 119.692 86.9253 120.061 87.0772C120.43 87.2292 120.853 87.0555 121.005 86.6865L121.624 85.1887C121.624 85.1887 121.646 85.1236 121.657 85.091C121.787 85.1236 121.928 85.1453 122.069 85.167C122.069 85.1995 122.069 85.2321 122.069 85.2647V86.8818C122.069 87.2726 122.395 87.5982 122.785 87.5982C123.176 87.5982 123.502 87.2726 123.502 86.8818V85.2647C123.502 85.2647 123.502 85.1995 123.502 85.167C123.643 85.1453 123.795 85.1127 123.925 85.0801C123.925 85.1127 123.936 85.1453 123.958 85.1778L124.576 86.6756C124.728 87.0446 125.152 87.2183 125.521 87.0663C125.89 86.9144 126.063 86.4911 125.911 86.1221L125.293 84.6243C125.293 84.6243 125.26 84.57 125.249 84.5375C125.369 84.4615 125.488 84.3855 125.597 84.3095C125.618 84.3312 125.629 84.3638 125.662 84.3855L126.801 85.5251C127.083 85.8073 127.539 85.8073 127.821 85.5251C128.104 85.243 128.104 84.7871 127.821 84.5049L126.682 83.3653C126.682 83.3653 126.628 83.3219 126.606 83.3001C126.693 83.1808 126.769 83.0614 126.845 82.942C126.877 82.9528 126.899 82.9745 126.932 82.9854L128.429 83.6041C128.798 83.756 129.222 83.5824 129.374 83.2133C129.526 82.8443 129.352 82.421 128.983 82.2691L127.485 81.6504C127.485 81.6504 127.42 81.6287 127.387 81.6179C127.42 81.4876 127.442 81.3465 127.463 81.2054C127.496 81.2054 127.528 81.2054 127.561 81.2054Z" fill="#FF9815"/>
<path d="M96.2918 75.974H61.9727V80.4999H96.2918V75.974Z" fill="#A8A8A8"/>
<path d="M108.437 83.0722H61.9727V87.5982H108.437V83.0722Z" fill="#A8A8A8"/>
</g>
<defs>
<filter id="filter0_d_816_5202" x="2.86102e-06" y="11.6268" width="132.971" height="147.668" filterUnits="userSpaceOnUse" color-interpolation-filters="sRGB">
<feFlood flood-opacity="0" result="BackgroundImageFix"/>
<feColorMatrix in="SourceAlpha" type="matrix" values="0 0 0 0 0 0 0 0 0 0 0 0 0 0 0 0 0 0 127 0" result="hardAlpha"/>
<feOffset dx="1" dy="8"/>
<feGaussianBlur stdDeviation="5.15"/>
<feComposite in2="hardAlpha" operator="out"/>
<feColorMatrix type="matrix" values="0 0 0 0 0 0 0 0 0 0 0 0 0 0 0 0 0 0 0.25 0"/>
<feBlend mode="normal" in2="BackgroundImageFix" result="effect1_dropShadow_816_5202"/>
<feBlend mode="normal" in="SourceGraphic" in2="effect1_dropShadow_816_5202" result="shape"/>
</filter>
<filter id="filter1_d_816_5202" x="19.1445" y="0.328906" width="120.404" height="140.402" filterUnits="userSpaceOnUse" color-interpolation-filters="sRGB">
<feFlood flood-opacity="0" result="BackgroundImageFix"/>
<feColorMatrix in="SourceAlpha" type="matrix" values="0 0 0 0 0 0 0 0 0 0 0 0 0 0 0 0 0 0 127 0" result="hardAlpha"/>
<feOffset dx="1" dy="8"/>
<feGaussianBlur stdDeviation="5.15"/>
<feComposite in2="hardAlpha" operator="out"/>
<feColorMatrix type="matrix" values="0 0 0 0 0 0 0 0 0 0 0 0 0 0 0 0 0 0 0.25 0"/>
<feBlend mode="normal" in2="BackgroundImageFix" result="effect1_dropShadow_816_5202"/>
<feBlend mode="normal" in="SourceGraphic" in2="effect1_dropShadow_816_5202" result="shape"/>
</filter>
<filter id="filter2_d_816_5202" x="45.2055" y="-0.000195503" width="104.184" height="129.179" filterUnits="userSpaceOnUse" color-interpolation-filters="sRGB">
<feFlood flood-opacity="0" result="BackgroundImageFix"/>
<feColorMatrix in="SourceAlpha" type="matrix" values="0 0 0 0 0 0 0 0 0 0 0 0 0 0 0 0 0 0 127 0" result="hardAlpha"/>
<feOffset dx="1" dy="8"/>
<feGaussianBlur stdDeviation="5.15"/>
<feComposite in2="hardAlpha" operator="out"/>
<feColorMatrix type="matrix" values="0 0 0 0 0 0 0 0 0 0 0 0 0 0 0 0 0 0 0.25 0"/>
<feBlend mode="normal" in2="BackgroundImageFix" result="effect1_dropShadow_816_5202"/>
<feBlend mode="normal" in="SourceGraphic" in2="effect1_dropShadow_816_5202" result="shape"/>
</filter>
</defs>
</svg>
